<svg id="visual" viewBox="0 0 900 600" width="900" height="600" xmlns="http://www.w3.org/2000/svg" xmlns:xlink="http://www.w3.org/1999/xlink" version="1.1"><g stroke-width="1" stroke-linejoin="bevel"><path d="M461 325L430 275.1L439 335.9Z" fill="#191342" stroke="#191342"></path><path d="M461 325L473 279.3L430 275.1Z" fill="#442697" stroke="#442697"></path><path d="M430 275.1L392 315.9L439 335.9Z" fill="#2c1d6c" stroke="#2c1d6c"></path><path d="M430 275.1L392 276.3L392 315.9Z" fill="#251a5e" stroke="#251a5e"></path><path d="M392 315.9L397 342.7L439 335.9Z" fill="#110828" stroke="#110828"></path><path d="M397 342.7L406 356.7L439 335.9Z" fill="#1f1750" stroke="#1f1750"></path><path d="M496 392.6L507 322L461 325Z" fill="#1f1750" stroke="#1f1750"></path><path d="M392 276.3L372 297.9L392 315.9Z" fill="#191342" stroke="#191342"></path><path d="M392 315.9L363 319.7L397 342.7Z" fill="#110828" stroke="#110828"></path><path d="M473 279.3L453 237.4L430 275.1Z" fill="#251a5e" stroke="#251a5e"></path><path d="M430 275.1L438 206.4L392 276.3Z" fill="#110828" stroke="#110828"></path><path d="M451 392.6L461 325L439 335.9Z" fill="#33217a" stroke="#33217a"></path><path d="M461 325L507 322L473 279.3Z" fill="#0a001c" stroke="#0a001c"></path><path d="M473 279.3L494 240.1L453 237.4Z" fill="#3b2489" stroke="#3b2489"></path><path d="M511 287.3L505 271.3L473 279.3Z" fill="#110828" stroke="#110828"></path><path d="M513 292.9L511 287.3L473 279.3Z" fill="#442697" stroke="#442697"></path><path d="M372 297.9L363 319.7L392 315.9Z" fill="#251a5e" stroke="#251a5e"></path><path d="M397 342.7L334 327L406 356.7Z" fill="#0a001c" stroke="#0a001c"></path><path d="M507 322L513 292.9L473 279.3Z" fill="#1f1750" stroke="#1f1750"></path><path d="M392 276.3L358 287.1L372 297.9Z" fill="#1f1750" stroke="#1f1750"></path><path d="M372 297.9L351 315L363 319.7Z" fill="#2c1d6c" stroke="#2c1d6c"></path><path d="M363 248.1L358 287.1L392 276.3Z" fill="#0a001c" stroke="#0a001c"></path><path d="M476 219.4L458 225.1L453 237.4Z" fill="#2c1d6c" stroke="#2c1d6c"></path><path d="M438 206.4L363 248.1L392 276.3Z" fill="#251a5e" stroke="#251a5e"></path><path d="M539 210.1L494 240.1L505 271.3Z" fill="#0a001c" stroke="#0a001c"></path><path d="M505 271.3L494 240.1L473 279.3Z" fill="#4d29a6" stroke="#4d29a6"></path><path d="M358 287.1L351 315L372 297.9Z" fill="#2c1d6c" stroke="#2c1d6c"></path><path d="M363 319.7L334 327L397 342.7Z" fill="#2c1d6c" stroke="#2c1d6c"></path><path d="M404 443.4L451 392.6L406 356.7Z" fill="#110828" stroke="#110828"></path><path d="M406 356.7L451 392.6L439 335.9Z" fill="#442697" stroke="#442697"></path><path d="M438 206.4L430 275.1L453 237.4Z" fill="#191342" stroke="#191342"></path><path d="M296 295L334 327L351 315Z" fill="#110828" stroke="#110828"></path><path d="M494 240.1L476 219.4L453 237.4Z" fill="#110828" stroke="#110828"></path><path d="M458 225.1L438 206.4L453 237.4Z" fill="#4d29a6" stroke="#4d29a6"></path><path d="M476 219.4L438 206.4L458 225.1Z" fill="#1f1750" stroke="#1f1750"></path><path d="M550 334L537 309L507 322Z" fill="#140f35" stroke="#140f35"></path><path d="M507 322L537 309L513 292.9Z" fill="#140f35" stroke="#140f35"></path><path d="M513 292.9L537 309L511 287.3Z" fill="#251a5e" stroke="#251a5e"></path><path d="M511 287.3L537 309L505 271.3Z" fill="#1f1750" stroke="#1f1750"></path><path d="M451 392.6L496 392.6L461 325Z" fill="#33217a" stroke="#33217a"></path><path d="M296 295L351 315L358 287.1Z" fill="#33217a" stroke="#33217a"></path><path d="M351 315L334 327L363 319.7Z" fill="#2c1d6c" stroke="#2c1d6c"></path><path d="M496 392.6L550 334L507 322Z" fill="#2c1d6c" stroke="#2c1d6c"></path><path d="M476 219.4L447 179.3L438 206.4Z" fill="#191342" stroke="#191342"></path><path d="M438 206.4L350 209.3L363 248.1Z" fill="#140f35" stroke="#140f35"></path><path d="M519 164.4L447 179.3L476 219.4Z" fill="#442697" stroke="#442697"></path><path d="M451 392.6L501 415.7L496 392.6Z" fill="#0a001c" stroke="#0a001c"></path><path d="M496 392.6L544 406.6L550 334Z" fill="#251a5e" stroke="#251a5e"></path><path d="M434 171.6L350 209.3L438 206.4Z" fill="#442697" stroke="#442697"></path><path d="M363 248.1L296 295L358 287.1Z" fill="#2c1d6c" stroke="#2c1d6c"></path><path d="M447 179.3L434 171.6L438 206.4Z" fill="#1f1750" stroke="#1f1750"></path><path d="M537 309L539 210.1L505 271.3Z" fill="#110828" stroke="#110828"></path><path d="M494 240.1L539 210.1L476 219.4Z" fill="#0a001c" stroke="#0a001c"></path><path d="M447 179.3L473 145.7L434 171.6Z" fill="#3b2489" stroke="#3b2489"></path><path d="M610 301.9L539 210.1L537 309Z" fill="#251a5e" stroke="#251a5e"></path><path d="M350 209.3L296 295L363 248.1Z" fill="#191342" stroke="#191342"></path><path d="M365 450.4L406 356.7L308 417.6Z" fill="#140f35" stroke="#140f35"></path><path d="M365 450.4L404 443.4L406 356.7Z" fill="#33217a" stroke="#33217a"></path><path d="M451 392.6L459 449.4L501 415.7Z" fill="#191342" stroke="#191342"></path><path d="M404 443.4L459 449.4L451 392.6Z" fill="#4d29a6" stroke="#4d29a6"></path><path d="M553 443.7L544 406.6L501 415.7Z" fill="#191342" stroke="#191342"></path><path d="M501 415.7L544 406.6L496 392.6Z" fill="#0a001c" stroke="#0a001c"></path><path d="M544 406.6L587 351L550 334Z" fill="#4d29a6" stroke="#4d29a6"></path><path d="M550 334L594 325.1L537 309Z" fill="#3b2489" stroke="#3b2489"></path><path d="M587 351L594 325.1L550 334Z" fill="#0a001c" stroke="#0a001c"></path><path d="M434 171.6L348 172.6L350 209.3Z" fill="#1f1750" stroke="#1f1750"></path><path d="M350 209.3L283 184.3L296 295Z" fill="#2c1d6c" stroke="#2c1d6c"></path><path d="M308 417.6L406 356.7L334 327Z" fill="#1f1750" stroke="#1f1750"></path><path d="M404 443.4L429 487.3L459 449.4Z" fill="#251a5e" stroke="#251a5e"></path><path d="M570 189.4L519 164.4L539 210.1Z" fill="#140f35" stroke="#140f35"></path><path d="M539 210.1L519 164.4L476 219.4Z" fill="#191342" stroke="#191342"></path><path d="M434 171.6L392 138.6L348 172.6Z" fill="#191342" stroke="#191342"></path><path d="M519 164.4L473 145.7L447 179.3Z" fill="#251a5e" stroke="#251a5e"></path><path d="M348 172.6L325 181.6L350 209.3Z" fill="#3b2489" stroke="#3b2489"></path><path d="M296 295L282 371.9L334 327Z" fill="#442697" stroke="#442697"></path><path d="M348 172.6L322 179.3L325 181.6Z" fill="#442697" stroke="#442697"></path><path d="M325 181.6L283 184.3L350 209.3Z" fill="#251a5e" stroke="#251a5e"></path><path d="M282 371.9L308 417.6L334 327Z" fill="#140f35" stroke="#140f35"></path><path d="M639 374.9L610 301.9L594 325.1Z" fill="#442697" stroke="#442697"></path><path d="M594 325.1L610 301.9L537 309Z" fill="#140f35" stroke="#140f35"></path><path d="M439 99.6L392 138.6L434 171.6Z" fill="#191342" stroke="#191342"></path><path d="M348 172.6L327 120.7L322 179.3Z" fill="#3b2489" stroke="#3b2489"></path><path d="M544 406.6L579 404.7L587 351Z" fill="#191342" stroke="#191342"></path><path d="M587 351L639 374.9L594 325.1Z" fill="#3b2489" stroke="#3b2489"></path><path d="M553 443.7L579 404.7L544 406.6Z" fill="#251a5e" stroke="#251a5e"></path><path d="M610 301.9L570 189.4L539 210.1Z" fill="#3b2489" stroke="#3b2489"></path><path d="M392 138.6L367 143.4L348 172.6Z" fill="#191342" stroke="#191342"></path><path d="M347 469.6L364 465.6L365 450.4Z" fill="#191342" stroke="#191342"></path><path d="M365 450.4L364 465.6L404 443.4Z" fill="#0a001c" stroke="#0a001c"></path><path d="M519 490.1L501 415.7L459 449.4Z" fill="#110828" stroke="#110828"></path><path d="M519 490.1L553 443.7L501 415.7Z" fill="#251a5e" stroke="#251a5e"></path><path d="M364 465.6L429 487.3L404 443.4Z" fill="#442697" stroke="#442697"></path><path d="M256 349.9L268 372.9L282 371.9Z" fill="#4d29a6" stroke="#4d29a6"></path><path d="M282 371.9L277 405.7L308 417.6Z" fill="#442697" stroke="#442697"></path><path d="M256 349.9L282 371.9L296 295Z" fill="#2c1d6c" stroke="#2c1d6c"></path><path d="M239 298L256 349.9L296 295Z" fill="#442697" stroke="#442697"></path><path d="M303 470.4L347 469.6L308 417.6Z" fill="#1f1750" stroke="#1f1750"></path><path d="M308 417.6L347 469.6L365 450.4Z" fill="#110828" stroke="#110828"></path><path d="M364 465.6L395 516.4L429 487.3Z" fill="#4d29a6" stroke="#4d29a6"></path><path d="M225 412.7L277 405.7L268 372.9Z" fill="#4d29a6" stroke="#4d29a6"></path><path d="M268 372.9L277 405.7L282 371.9Z" fill="#442697" stroke="#442697"></path><path d="M275 150.7L283 184.3L322 179.3Z" fill="#251a5e" stroke="#251a5e"></path><path d="M322 179.3L283 184.3L325 181.6Z" fill="#110828" stroke="#110828"></path><path d="M238 247.1L241 293.1L296 295Z" fill="#140f35" stroke="#140f35"></path><path d="M392 138.6L383 114.9L367 143.4Z" fill="#110828" stroke="#110828"></path><path d="M367 143.4L327 120.7L348 172.6Z" fill="#442697" stroke="#442697"></path><path d="M439 99.6L383 114.9L392 138.6Z" fill="#33217a" stroke="#33217a"></path><path d="M231 287.1L239 298L241 293.1Z" fill="#191342" stroke="#191342"></path><path d="M241 293.1L239 298L296 295Z" fill="#4d29a6" stroke="#4d29a6"></path><path d="M460 509.3L470 502.4L429 487.3Z" fill="#2c1d6c" stroke="#2c1d6c"></path><path d="M429 487.3L470 502.4L459 449.4Z" fill="#0a001c" stroke="#0a001c"></path><path d="M470 502.4L519 490.1L459 449.4Z" fill="#0a001c" stroke="#0a001c"></path><path d="M275 150.7L272 186.4L283 184.3Z" fill="#3b2489" stroke="#3b2489"></path><path d="M283 184.3L238 247.1L296 295Z" fill="#442697" stroke="#442697"></path><path d="M400 532.3L460 509.3L429 487.3Z" fill="#442697" stroke="#442697"></path><path d="M470 502.4L514 520.4L519 490.1Z" fill="#251a5e" stroke="#251a5e"></path><path d="M506 102.6L439 99.6L473 145.7Z" fill="#1f1750" stroke="#1f1750"></path><path d="M473 145.7L439 99.6L434 171.6Z" fill="#140f35" stroke="#140f35"></path><path d="M506 102.6L473 145.7L519 164.4Z" fill="#251a5e" stroke="#251a5e"></path><path d="M632 177.4L578 153.3L570 189.4Z" fill="#4d29a6" stroke="#4d29a6"></path><path d="M570 189.4L578 153.3L519 164.4Z" fill="#191342" stroke="#191342"></path><path d="M519 490.1L543 483.3L553 443.7Z" fill="#33217a" stroke="#33217a"></path><path d="M661 396.7L639 374.9L579 404.7Z" fill="#191342" stroke="#191342"></path><path d="M557 489.1L543 483.3L514 520.4Z" fill="#3b2489" stroke="#3b2489"></path><path d="M238 247.1L231 287.1L241 293.1Z" fill="#2c1d6c" stroke="#2c1d6c"></path><path d="M211 392.6L268 372.9L256 349.9Z" fill="#2c1d6c" stroke="#2c1d6c"></path><path d="M211 392.6L225 412.7L268 372.9Z" fill="#2c1d6c" stroke="#2c1d6c"></path><path d="M272 186.4L238 247.1L283 184.3Z" fill="#33217a" stroke="#33217a"></path><path d="M578 153.3L553 130.6L519 164.4Z" fill="#251a5e" stroke="#251a5e"></path><path d="M277 405.7L303 470.4L308 417.6Z" fill="#191342" stroke="#191342"></path><path d="M366 510.1L395 516.4L364 465.6Z" fill="#4d29a6" stroke="#4d29a6"></path><path d="M609 496.6L579 404.7L553 443.7Z" fill="#191342" stroke="#191342"></path><path d="M579 404.7L639 374.9L587 351Z" fill="#442697" stroke="#442697"></path><path d="M610 301.9L667 236L570 189.4Z" fill="#2c1d6c" stroke="#2c1d6c"></path><path d="M553 130.6L506 102.6L519 164.4Z" fill="#1f1750" stroke="#1f1750"></path><path d="M375 95.7L327 120.7L383 114.9Z" fill="#2c1d6c" stroke="#2c1d6c"></path><path d="M383 114.9L327 120.7L367 143.4Z" fill="#110828" stroke="#110828"></path><path d="M366 510.1L364 465.6L347 469.6Z" fill="#110828" stroke="#110828"></path><path d="M303 470.4L366 510.1L347 469.6Z" fill="#1f1750" stroke="#1f1750"></path><path d="M433 34.9L375 95.7L439 99.6Z" fill="#191342" stroke="#191342"></path><path d="M439 99.6L375 95.7L383 114.9Z" fill="#3b2489" stroke="#3b2489"></path><path d="M514 520.4L543 483.3L519 490.1Z" fill="#33217a" stroke="#33217a"></path><path d="M543 483.3L557 489.1L553 443.7Z" fill="#2c1d6c" stroke="#2c1d6c"></path><path d="M296 122.6L275 150.7L322 179.3Z" fill="#2c1d6c" stroke="#2c1d6c"></path><path d="M272 186.4L224 157.3L238 247.1Z" fill="#191342" stroke="#191342"></path><path d="M674 336.9L660 278.1L610 301.9Z" fill="#2c1d6c" stroke="#2c1d6c"></path><path d="M238 247.1L212 269L231 287.1Z" fill="#1f1750" stroke="#1f1750"></path><path d="M211 392.6L256 349.9L201 374.9Z" fill="#442697" stroke="#442697"></path><path d="M277 405.7L228 476.6L303 470.4Z" fill="#33217a" stroke="#33217a"></path><path d="M170 273L212 269L154 263.3Z" fill="#4d29a6" stroke="#4d29a6"></path><path d="M500 530.4L470 502.4L460 509.3Z" fill="#3b2489" stroke="#3b2489"></path><path d="M500 530.4L514 520.4L470 502.4Z" fill="#1f1750" stroke="#1f1750"></path><path d="M366 510.1L400 532.3L395 516.4Z" fill="#140f35" stroke="#140f35"></path><path d="M395 516.4L400 532.3L429 487.3Z" fill="#110828" stroke="#110828"></path><path d="M382 566.1L400 532.3L366 510.1Z" fill="#0a001c" stroke="#0a001c"></path><path d="M327 120.7L296 122.6L322 179.3Z" fill="#1f1750" stroke="#1f1750"></path><path d="M274 117.4L296 122.6L296 64.7Z" fill="#1f1750" stroke="#1f1750"></path><path d="M667 236L632 177.4L570 189.4Z" fill="#110828" stroke="#110828"></path><path d="M578 153.3L602 108.9L553 130.6Z" fill="#251a5e" stroke="#251a5e"></path><path d="M531 39.9L481 68.7L506 102.6Z" fill="#33217a" stroke="#33217a"></path><path d="M444 554.3L500 530.4L460 509.3Z" fill="#140f35" stroke="#140f35"></path><path d="M256 349.9L239 298L201 374.9Z" fill="#4d29a6" stroke="#4d29a6"></path><path d="M680 340.7L674 336.9L639 374.9Z" fill="#140f35" stroke="#140f35"></path><path d="M639 374.9L674 336.9L610 301.9Z" fill="#191342" stroke="#191342"></path><path d="M637 157.3L627 158.7L632 177.4Z" fill="#3b2489" stroke="#3b2489"></path><path d="M632 177.4L627 158.7L578 153.3Z" fill="#140f35" stroke="#140f35"></path><path d="M660 278.1L667 236L610 301.9Z" fill="#1f1750" stroke="#1f1750"></path><path d="M751 244.1L667 236L660 278.1Z" fill="#0a001c" stroke="#0a001c"></path><path d="M531 39.9L506 102.6L553 130.6Z" fill="#1f1750" stroke="#1f1750"></path><path d="M506 102.6L481 68.7L439 99.6Z" fill="#3b2489" stroke="#3b2489"></path><path d="M609 496.6L661 396.7L579 404.7Z" fill="#33217a" stroke="#33217a"></path><path d="M201 374.9L239 298L190 369Z" fill="#110828" stroke="#110828"></path><path d="M680 340.7L679 330.1L674 336.9Z" fill="#1f1750" stroke="#1f1750"></path><path d="M674 336.9L679 330.1L660 278.1Z" fill="#4d29a6" stroke="#4d29a6"></path><path d="M661 396.7L680 340.7L639 374.9Z" fill="#4d29a6" stroke="#4d29a6"></path><path d="M190 369L239 298L160 329.1Z" fill="#4d29a6" stroke="#4d29a6"></path><path d="M721 164.3L637 157.3L632 177.4Z" fill="#251a5e" stroke="#251a5e"></path><path d="M627 158.7L602 108.9L578 153.3Z" fill="#4d29a6" stroke="#4d29a6"></path><path d="M296 64.7L296 122.6L327 120.7Z" fill="#251a5e" stroke="#251a5e"></path><path d="M296 122.6L274 117.4L275 150.7Z" fill="#251a5e" stroke="#251a5e"></path><path d="M275 150.7L224 157.3L272 186.4Z" fill="#251a5e" stroke="#251a5e"></path><path d="M296 64.7L327 120.7L375 95.7Z" fill="#2c1d6c" stroke="#2c1d6c"></path><path d="M400 532.3L444 554.3L460 509.3Z" fill="#0a001c" stroke="#0a001c"></path><path d="M203 405.6L209 414.7L211 392.6Z" fill="#1f1750" stroke="#1f1750"></path><path d="M211 392.6L209 414.7L225 412.7Z" fill="#2c1d6c" stroke="#2c1d6c"></path><path d="M225 412.7L228 476.6L277 405.7Z" fill="#251a5e" stroke="#251a5e"></path><path d="M358 596.1L382 566.1L328 600Z" fill="#251a5e" stroke="#251a5e"></path><path d="M201 374.9L203 405.6L211 392.6Z" fill="#191342" stroke="#191342"></path><path d="M160 329.1L239 298L231 287.1Z" fill="#4d29a6" stroke="#4d29a6"></path><path d="M201 374.9L190 369L203 405.6Z" fill="#2c1d6c" stroke="#2c1d6c"></path><path d="M652 108.4L602 108.9L627 158.7Z" fill="#2c1d6c" stroke="#2c1d6c"></path><path d="M598 539.1L609 496.6L557 489.1Z" fill="#4d29a6" stroke="#4d29a6"></path><path d="M557 489.1L609 496.6L553 443.7Z" fill="#191342" stroke="#191342"></path><path d="M598 539.1L557 489.1L514 520.4Z" fill="#4d29a6" stroke="#4d29a6"></path><path d="M598 539.1L514 520.4L564 579.3Z" fill="#0a001c" stroke="#0a001c"></path><path d="M223 154.6L224 157.3L275 150.7Z" fill="#4d29a6" stroke="#4d29a6"></path><path d="M212 269L160 329.1L231 287.1Z" fill="#442697" stroke="#442697"></path><path d="M274 117.4L223 154.6L275 150.7Z" fill="#2c1d6c" stroke="#2c1d6c"></path><path d="M154 263.3L212 269L171 161.6Z" fill="#33217a" stroke="#33217a"></path><path d="M609 496.6L680 410.9L661 396.7Z" fill="#191342" stroke="#191342"></path><path d="M661 396.7L690 389.6L680 340.7Z" fill="#1f1750" stroke="#1f1750"></path><path d="M680 410.9L690 389.6L661 396.7Z" fill="#140f35" stroke="#140f35"></path><path d="M680 340.7L728 309L679 330.1Z" fill="#251a5e" stroke="#251a5e"></path><path d="M679 330.1L728 309L660 278.1Z" fill="#110828" stroke="#110828"></path><path d="M271 555.1L366 510.1L303 470.4Z" fill="#2c1d6c" stroke="#2c1d6c"></path><path d="M400 532.3L382 566.1L444 554.3Z" fill="#140f35" stroke="#140f35"></path><path d="M211 154.4L238 247.1L224 157.3Z" fill="#2c1d6c" stroke="#2c1d6c"></path><path d="M471 21.9L433 34.9L481 68.7Z" fill="#1f1750" stroke="#1f1750"></path><path d="M481 68.7L433 34.9L439 99.6Z" fill="#110828" stroke="#110828"></path><path d="M203 488.6L228 476.6L180 475.4Z" fill="#140f35" stroke="#140f35"></path><path d="M209 414.7L228 476.6L225 412.7Z" fill="#1f1750" stroke="#1f1750"></path><path d="M166 424.7L209 414.7L203 405.6Z" fill="#140f35" stroke="#140f35"></path><path d="M206 74.9L211 154.4L223 154.6Z" fill="#0a001c" stroke="#0a001c"></path><path d="M223 154.6L211 154.4L224 157.3Z" fill="#191342" stroke="#191342"></path><path d="M713 410.9L698 393.6L680 410.9Z" fill="#3b2489" stroke="#3b2489"></path><path d="M680 410.9L698 393.6L690 389.6Z" fill="#191342" stroke="#191342"></path><path d="M690 389.6L698 393.6L680 340.7Z" fill="#0a001c" stroke="#0a001c"></path><path d="M652 108.4L608 87.7L602 108.9Z" fill="#0a001c" stroke="#0a001c"></path><path d="M602 108.9L599 74.9L553 130.6Z" fill="#140f35" stroke="#140f35"></path><path d="M608 87.7L607 85.6L602 108.9Z" fill="#0a001c" stroke="#0a001c"></path><path d="M464 15.9L419 27.9L433 34.9Z" fill="#2c1d6c" stroke="#2c1d6c"></path><path d="M433 34.9L419 27.9L375 95.7Z" fill="#3b2489" stroke="#3b2489"></path><path d="M274 117.4L206 74.9L223 154.6Z" fill="#191342" stroke="#191342"></path><path d="M170 273L160 329.1L212 269Z" fill="#442697" stroke="#442697"></path><path d="M190 369L166 424.7L203 405.6Z" fill="#33217a" stroke="#33217a"></path><path d="M349 0L296 64.7L375 95.7Z" fill="#4d29a6" stroke="#4d29a6"></path><path d="M358 596.1L385 580.1L382 566.1Z" fill="#33217a" stroke="#33217a"></path><path d="M382 566.1L385 580.1L444 554.3Z" fill="#33217a" stroke="#33217a"></path><path d="M564 579.3L514 520.4L500 530.4Z" fill="#110828" stroke="#110828"></path><path d="M599 74.9L531 39.9L553 130.6Z" fill="#4d29a6" stroke="#4d29a6"></path><path d="M607 85.6L599 74.9L602 108.9Z" fill="#442697" stroke="#442697"></path><path d="M481 600L500 530.4L444 554.3Z" fill="#1f1750" stroke="#1f1750"></path><path d="M719 414.6L713 410.9L702 452.3Z" fill="#0a001c" stroke="#0a001c"></path><path d="M531 39.9L471 21.9L481 68.7Z" fill="#110828" stroke="#110828"></path><path d="M171 161.6L212 269L238 247.1Z" fill="#191342" stroke="#191342"></path><path d="M170 273L148 325.1L160 329.1Z" fill="#251a5e" stroke="#251a5e"></path><path d="M206 74.9L192 156.3L211 154.4Z" fill="#3b2489" stroke="#3b2489"></path><path d="M211 154.4L192 156.3L238 247.1Z" fill="#110828" stroke="#110828"></path><path d="M126 278.3L148 325.1L170 273Z" fill="#191342" stroke="#191342"></path><path d="M160 329.1L141 376.9L190 369Z" fill="#2c1d6c" stroke="#2c1d6c"></path><path d="M469 0L464 15.9L471 21.9Z" fill="#3b2489" stroke="#3b2489"></path><path d="M471 21.9L464 15.9L433 34.9Z" fill="#1f1750" stroke="#1f1750"></path><path d="M698 393.6L728 309L680 340.7Z" fill="#0a001c" stroke="#0a001c"></path><path d="M666 115.6L652 108.4L637 157.3Z" fill="#191342" stroke="#191342"></path><path d="M637 157.3L652 108.4L627 158.7Z" fill="#0a001c" stroke="#0a001c"></path><path d="M608 87.7L633 55.7L607 85.6Z" fill="#251a5e" stroke="#251a5e"></path><path d="M666 115.6L637 157.3L721 164.3Z" fill="#110828" stroke="#110828"></path><path d="M607 85.6L633 55.7L599 74.9Z" fill="#4d29a6" stroke="#4d29a6"></path><path d="M702 452.3L680 410.9L609 496.6Z" fill="#4d29a6" stroke="#4d29a6"></path><path d="M698 393.6L793 369L728 309Z" fill="#1f1750" stroke="#1f1750"></path><path d="M358 596.1L413 600L385 580.1Z" fill="#251a5e" stroke="#251a5e"></path><path d="M385 580.1L413 600L444 554.3Z" fill="#251a5e" stroke="#251a5e"></path><path d="M141 376.9L166 424.7L190 369Z" fill="#0a001c" stroke="#0a001c"></path><path d="M598 539.1L648 514.1L609 496.6Z" fill="#2c1d6c" stroke="#2c1d6c"></path><path d="M721 164.3L632 177.4L667 236Z" fill="#1f1750" stroke="#1f1750"></path><path d="M652 108.4L633 55.7L608 87.7Z" fill="#0a001c" stroke="#0a001c"></path><path d="M170 453.3L228 476.6L209 414.7Z" fill="#140f35" stroke="#140f35"></path><path d="M245 548.3L271 555.1L303 470.4Z" fill="#442697" stroke="#442697"></path><path d="M413 600L481 600L444 554.3Z" fill="#251a5e" stroke="#251a5e"></path><path d="M672 540.4L653 515.4L648 514.1Z" fill="#4d29a6" stroke="#4d29a6"></path><path d="M481 600L492 600L500 530.4Z" fill="#251a5e" stroke="#251a5e"></path><path d="M245 548.3L303 470.4L228 476.6Z" fill="#191342" stroke="#191342"></path><path d="M672 540.4L648 514.1L598 539.1Z" fill="#0a001c" stroke="#0a001c"></path><path d="M648 514.1L702 452.3L609 496.6Z" fill="#0a001c" stroke="#0a001c"></path><path d="M328 600L382 566.1L366 510.1Z" fill="#110828" stroke="#110828"></path><path d="M503 600L564 579.3L500 530.4Z" fill="#33217a" stroke="#33217a"></path><path d="M702 452.3L713 410.9L680 410.9Z" fill="#33217a" stroke="#33217a"></path><path d="M713 410.9L787 391.7L698 393.6Z" fill="#140f35" stroke="#140f35"></path><path d="M492 600L503 600L500 530.4Z" fill="#2c1d6c" stroke="#2c1d6c"></path><path d="M142 150.4L171 161.6L140 109.9Z" fill="#2c1d6c" stroke="#2c1d6c"></path><path d="M192 156.3L171 161.6L238 247.1Z" fill="#1f1750" stroke="#1f1750"></path><path d="M653 515.4L702 452.3L648 514.1Z" fill="#191342" stroke="#191342"></path><path d="M128 370.7L141 376.9L148 325.1Z" fill="#1f1750" stroke="#1f1750"></path><path d="M148 325.1L141 376.9L160 329.1Z" fill="#1f1750" stroke="#1f1750"></path><path d="M166 424.7L170 453.3L209 414.7Z" fill="#3b2489" stroke="#3b2489"></path><path d="M117 486.3L170 453.3L88 447.7Z" fill="#191342" stroke="#191342"></path><path d="M481 0L469 0L471 21.9Z" fill="#0a001c" stroke="#0a001c"></path><path d="M464 15.9L469 0L419 27.9Z" fill="#0a001c" stroke="#0a001c"></path><path d="M419 27.9L374 0L375 95.7Z" fill="#191342" stroke="#191342"></path><path d="M481 0L471 21.9L499 0Z" fill="#110828" stroke="#110828"></path><path d="M499 0L531 39.9L588 0Z" fill="#140f35" stroke="#140f35"></path><path d="M499 0L471 21.9L531 39.9Z" fill="#1f1750" stroke="#1f1750"></path><path d="M170 453.3L180 475.4L228 476.6Z" fill="#442697" stroke="#442697"></path><path d="M203 488.6L245 548.3L228 476.6Z" fill="#140f35" stroke="#140f35"></path><path d="M469 0L385 0L419 27.9Z" fill="#4d29a6" stroke="#4d29a6"></path><path d="M247 565.3L245 548.3L211 557.1Z" fill="#1f1750" stroke="#1f1750"></path><path d="M271 555.1L328 600L366 510.1Z" fill="#0a001c" stroke="#0a001c"></path><path d="M597 30.7L531 39.9L599 74.9Z" fill="#251a5e" stroke="#251a5e"></path><path d="M385 0L374 0L419 27.9Z" fill="#33217a" stroke="#33217a"></path><path d="M218 59.9L206 74.9L274 117.4Z" fill="#1f1750" stroke="#1f1750"></path><path d="M124 224.1L126 278.3L154 263.3Z" fill="#2c1d6c" stroke="#2c1d6c"></path><path d="M154 263.3L126 278.3L170 273Z" fill="#251a5e" stroke="#251a5e"></path><path d="M294 600L328 600L271 555.1Z" fill="#251a5e" stroke="#251a5e"></path><path d="M358 596.1L328 600L413 600Z" fill="#251a5e" stroke="#251a5e"></path><path d="M74 369.9L128 370.7L148 325.1Z" fill="#140f35" stroke="#140f35"></path><path d="M141 376.9L88 447.7L166 424.7Z" fill="#1f1750" stroke="#1f1750"></path><path d="M202 575.3L211 557.1L165 539.4Z" fill="#3b2489" stroke="#3b2489"></path><path d="M751 244.1L721 164.3L667 236Z" fill="#2c1d6c" stroke="#2c1d6c"></path><path d="M731 72.9L652 108.4L666 115.6Z" fill="#1f1750" stroke="#1f1750"></path><path d="M731 72.9L633 55.7L652 108.4Z" fill="#3b2489" stroke="#3b2489"></path><path d="M633 55.7L597 30.7L599 74.9Z" fill="#1f1750" stroke="#1f1750"></path><path d="M374 0L349 0L375 95.7Z" fill="#3b2489" stroke="#3b2489"></path><path d="M765 268L751 244.1L728 309Z" fill="#140f35" stroke="#140f35"></path><path d="M728 309L751 244.1L660 278.1Z" fill="#2c1d6c" stroke="#2c1d6c"></path><path d="M211 557.1L245 548.3L203 488.6Z" fill="#140f35" stroke="#140f35"></path><path d="M245 548.3L247 565.3L271 555.1Z" fill="#442697" stroke="#442697"></path><path d="M171 161.6L124 224.1L154 263.3Z" fill="#442697" stroke="#442697"></path><path d="M126 278.3L74 369.9L148 325.1Z" fill="#4d29a6" stroke="#4d29a6"></path><path d="M702 452.3L736 452.7L719 414.6Z" fill="#191342" stroke="#191342"></path><path d="M799 294.1L765 268L728 309Z" fill="#3b2489" stroke="#3b2489"></path><path d="M653 515.4L713 478.3L702 452.3Z" fill="#251a5e" stroke="#251a5e"></path><path d="M672 540.4L713 478.3L653 515.4Z" fill="#442697" stroke="#442697"></path><path d="M218 59.9L274 117.4L296 64.7Z" fill="#140f35" stroke="#140f35"></path><path d="M171 161.6L142 150.4L124 224.1Z" fill="#110828" stroke="#110828"></path><path d="M282 600L294 600L271 555.1Z" fill="#110828" stroke="#110828"></path><path d="M287 0L218 59.9L296 64.7Z" fill="#110828" stroke="#110828"></path><path d="M787 391.7L713 410.9L719 414.6Z" fill="#4d29a6" stroke="#4d29a6"></path><path d="M751 244.1L755 177.3L721 164.3Z" fill="#140f35" stroke="#140f35"></path><path d="M655 584.3L672 540.4L598 539.1Z" fill="#140f35" stroke="#140f35"></path><path d="M745 456.3L736 452.7L744 483.4Z" fill="#442697" stroke="#442697"></path><path d="M713 478.3L736 452.7L702 452.3Z" fill="#4d29a6" stroke="#4d29a6"></path><path d="M247 565.3L282 600L271 555.1Z" fill="#191342" stroke="#191342"></path><path d="M171 161.6L192 156.3L140 109.9Z" fill="#251a5e" stroke="#251a5e"></path><path d="M133 139.7L142 150.4L140 109.9Z" fill="#140f35" stroke="#140f35"></path><path d="M165 539.4L211 557.1L203 488.6Z" fill="#442697" stroke="#442697"></path><path d="M247 565.3L241 600L282 600Z" fill="#1f1750" stroke="#1f1750"></path><path d="M203 488.6L180 475.4L165 539.4Z" fill="#191342" stroke="#191342"></path><path d="M349 0L287 0L296 64.7Z" fill="#251a5e" stroke="#251a5e"></path><path d="M597 30.7L588 0L531 39.9Z" fill="#140f35" stroke="#140f35"></path><path d="M607 0L588 0L597 30.7Z" fill="#33217a" stroke="#33217a"></path><path d="M607 0L597 30.7L615 0Z" fill="#140f35" stroke="#140f35"></path><path d="M564 579.3L605 603.1L598 539.1Z" fill="#251a5e" stroke="#251a5e"></path><path d="M503 600L605 603.1L564 579.3Z" fill="#4d29a6" stroke="#4d29a6"></path><path d="M492 600L605 603.1L503 600Z" fill="#191342" stroke="#191342"></path><path d="M481 600L605 603.1L492 600Z" fill="#4d29a6" stroke="#4d29a6"></path><path d="M51 624.1L605 603.1L481 600Z" fill="#191342" stroke="#191342"></path><path d="M51 624.1L481 600L413 600Z" fill="#442697" stroke="#442697"></path><path d="M51 624.1L413 600L328 600Z" fill="#4d29a6" stroke="#4d29a6"></path><path d="M51 624.1L328 600L294 600Z" fill="#2c1d6c" stroke="#2c1d6c"></path><path d="M813 198.3L755 177.3L751 244.1Z" fill="#4d29a6" stroke="#4d29a6"></path><path d="M721 164.3L747 122.7L666 115.6Z" fill="#4d29a6" stroke="#4d29a6"></path><path d="M744 483.4L736 452.7L713 478.3Z" fill="#140f35" stroke="#140f35"></path><path d="M736 452.7L745 456.3L719 414.6Z" fill="#140f35" stroke="#140f35"></path><path d="M605 603.1L613 600L598 539.1Z" fill="#110828" stroke="#110828"></path><path d="M605 603.1L617 600L613 600Z" fill="#2c1d6c" stroke="#2c1d6c"></path><path d="M613 600L617 600L598 539.1Z" fill="#251a5e" stroke="#251a5e"></path><path d="M140 109.9L192 156.3L152 88.6Z" fill="#140f35" stroke="#140f35"></path><path d="M142 150.4L103 165.4L124 224.1Z" fill="#2c1d6c" stroke="#2c1d6c"></path><path d="M813 198.3L757 166.6L755 177.3Z" fill="#251a5e" stroke="#251a5e"></path><path d="M755 177.3L757 166.6L721 164.3Z" fill="#4d29a6" stroke="#4d29a6"></path><path d="M615 0L597 30.7L633 55.7Z" fill="#3b2489" stroke="#3b2489"></path><path d="M161 35.7L178 68.7L218 59.9Z" fill="#2c1d6c" stroke="#2c1d6c"></path><path d="M218 59.9L178 68.7L206 74.9Z" fill="#110828" stroke="#110828"></path><path d="M655 584.3L682 559.1L672 540.4Z" fill="#33217a" stroke="#33217a"></path><path d="M672 540.4L749 489.3L713 478.3Z" fill="#191342" stroke="#191342"></path><path d="M635 -5.1L615 0L633 55.7Z" fill="#33217a" stroke="#33217a"></path><path d="M617 600L655 584.3L598 539.1Z" fill="#3b2489" stroke="#3b2489"></path><path d="M202 575.3L241 600L247 565.3Z" fill="#110828" stroke="#110828"></path><path d="M282 600L51 624.1L294 600Z" fill="#442697" stroke="#442697"></path><path d="M749 489.3L744 483.4L713 478.3Z" fill="#191342" stroke="#191342"></path><path d="M745 456.3L787 391.7L719 414.6Z" fill="#191342" stroke="#191342"></path><path d="M152 88.6L192 156.3L206 74.9Z" fill="#1f1750" stroke="#1f1750"></path><path d="M178 68.7L152 88.6L206 74.9Z" fill="#140f35" stroke="#140f35"></path><path d="M165 539.4L180 475.4L117 486.3Z" fill="#140f35" stroke="#140f35"></path><path d="M211 557.1L202 575.3L247 565.3Z" fill="#110828" stroke="#110828"></path><path d="M749 124.4L747 122.7L721 164.3Z" fill="#33217a" stroke="#33217a"></path><path d="M117 486.3L180 475.4L170 453.3Z" fill="#3b2489" stroke="#3b2489"></path><path d="M757 166.6L749 124.4L721 164.3Z" fill="#4d29a6" stroke="#4d29a6"></path><path d="M678 -5.1L635 -5.1L633 55.7Z" fill="#110828" stroke="#110828"></path><path d="M794 397.4L787 391.7L745 456.3Z" fill="#2c1d6c" stroke="#2c1d6c"></path><path d="M829 256.3L813 198.3L751 244.1Z" fill="#140f35" stroke="#140f35"></path><path d="M112 97.9L133 139.7L140 109.9Z" fill="#3b2489" stroke="#3b2489"></path><path d="M112 97.9L113 146.4L133 139.7Z" fill="#191342" stroke="#191342"></path><path d="M133 139.7L113 146.4L142 150.4Z" fill="#33217a" stroke="#33217a"></path><path d="M69 371.6L74 369.9L21 330Z" fill="#191342" stroke="#191342"></path><path d="M787 391.7L793 369L698 393.6Z" fill="#442697" stroke="#442697"></path><path d="M793 369L799 294.1L728 309Z" fill="#4d29a6" stroke="#4d29a6"></path><path d="M757 166.6L792 109.7L749 124.4Z" fill="#110828" stroke="#110828"></path><path d="M178 68.7L153 81.6L152 88.6Z" fill="#33217a" stroke="#33217a"></path><path d="M152 88.6L120 90.7L140 109.9Z" fill="#4d29a6" stroke="#4d29a6"></path><path d="M120 90.7L153 81.6L106 66.9Z" fill="#191342" stroke="#191342"></path><path d="M682 559.1L749 489.3L672 540.4Z" fill="#140f35" stroke="#140f35"></path><path d="M744 483.4L749 489.3L745 456.3Z" fill="#3b2489" stroke="#3b2489"></path><path d="M113 146.4L103 165.4L142 150.4Z" fill="#251a5e" stroke="#251a5e"></path><path d="M349 0L257 -14.1L287 0Z" fill="#442697" stroke="#442697"></path><path d="M287 0L257 -14.1L218 59.9Z" fill="#110828" stroke="#110828"></path><path d="M374 0L257 -14.1L349 0Z" fill="#140f35" stroke="#140f35"></path><path d="M385 0L257 -14.1L374 0Z" fill="#0a001c" stroke="#0a001c"></path><path d="M469 0L257 -14.1L385 0Z" fill="#33217a" stroke="#33217a"></path><path d="M481 0L257 -14.1L469 0Z" fill="#251a5e" stroke="#251a5e"></path><path d="M499 0L257 -14.1L481 0Z" fill="#3b2489" stroke="#3b2489"></path><path d="M635 -5.1L257 -14.1L499 0Z" fill="#2c1d6c" stroke="#2c1d6c"></path><path d="M635 -5.1L499 0L588 0Z" fill="#140f35" stroke="#140f35"></path><path d="M635 -5.1L588 0L607 0Z" fill="#251a5e" stroke="#251a5e"></path><path d="M731 72.9L666 115.6L747 122.7Z" fill="#1f1750" stroke="#1f1750"></path><path d="M615 0L635 -5.1L607 0Z" fill="#140f35" stroke="#140f35"></path><path d="M88 447.7L141 376.9L128 370.7Z" fill="#0a001c" stroke="#0a001c"></path><path d="M88 447.7L170 453.3L166 424.7Z" fill="#0a001c" stroke="#0a001c"></path><path d="M787 391.7L794 397.4L793 369Z" fill="#191342" stroke="#191342"></path><path d="M793 369L857 331.9L799 294.1Z" fill="#4d29a6" stroke="#4d29a6"></path><path d="M807 409.6L794 397.4L745 456.3Z" fill="#0a001c" stroke="#0a001c"></path><path d="M74 369.9L126 278.3L38 268Z" fill="#0a001c" stroke="#0a001c"></path><path d="M792 109.7L731 72.9L747 122.7Z" fill="#33217a" stroke="#33217a"></path><path d="M38 268L126 278.3L124 224.1Z" fill="#33217a" stroke="#33217a"></path><path d="M74 440.3L88 447.7L128 370.7Z" fill="#110828" stroke="#110828"></path><path d="M74 440.3L128 370.7L74 369.9Z" fill="#33217a" stroke="#33217a"></path><path d="M113 146.4L75 141.7L103 165.4Z" fill="#4d29a6" stroke="#4d29a6"></path><path d="M153 81.6L120 90.7L152 88.6Z" fill="#191342" stroke="#191342"></path><path d="M161 35.7L153 81.6L178 68.7Z" fill="#0a001c" stroke="#0a001c"></path><path d="M749 489.3L807 409.6L745 456.3Z" fill="#1f1750" stroke="#1f1750"></path><path d="M794 397.4L811 402.9L793 369Z" fill="#33217a" stroke="#33217a"></path><path d="M120 90.7L112 97.9L140 109.9Z" fill="#33217a" stroke="#33217a"></path><path d="M103 165.4L59 207.4L124 224.1Z" fill="#0a001c" stroke="#0a001c"></path><path d="M188 0L161 35.7L218 59.9Z" fill="#1f1750" stroke="#1f1750"></path><path d="M120 90.7L106 66.9L112 97.9Z" fill="#251a5e" stroke="#251a5e"></path><path d="M807 409.6L811 402.9L794 397.4Z" fill="#442697" stroke="#442697"></path><path d="M69 371.6L74 440.3L74 369.9Z" fill="#1f1750" stroke="#1f1750"></path><path d="M81 516.4L93 529.4L117 486.3Z" fill="#191342" stroke="#191342"></path><path d="M117 486.3L93 529.4L165 539.4Z" fill="#110828" stroke="#110828"></path><path d="M655 584.3L693 600L682 559.1Z" fill="#3b2489" stroke="#3b2489"></path><path d="M682 559.1L736 600L749 489.3Z" fill="#1f1750" stroke="#1f1750"></path><path d="M749 489.3L838 421.6L807 409.6Z" fill="#191342" stroke="#191342"></path><path d="M617 600L693 600L655 584.3Z" fill="#442697" stroke="#442697"></path><path d="M605 603.1L693 600L617 600Z" fill="#191342" stroke="#191342"></path><path d="M829 256.3L765 268L799 294.1Z" fill="#1f1750" stroke="#1f1750"></path><path d="M829 256.3L751 244.1L765 268Z" fill="#2c1d6c" stroke="#2c1d6c"></path><path d="M749 124.4L792 109.7L747 122.7Z" fill="#3b2489" stroke="#3b2489"></path><path d="M75 141.7L59 207.4L103 165.4Z" fill="#251a5e" stroke="#251a5e"></path><path d="M693 0L678 -5.1L633 55.7Z" fill="#2c1d6c" stroke="#2c1d6c"></path><path d="M635 -5.1L831 -24.1L257 -14.1Z" fill="#3b2489" stroke="#3b2489"></path><path d="M257 -14.1L188 0L218 59.9Z" fill="#442697" stroke="#442697"></path><path d="M59 73.6L75 141.7L112 97.9Z" fill="#140f35" stroke="#140f35"></path><path d="M857 331.9L829 256.3L799 294.1Z" fill="#140f35" stroke="#140f35"></path><path d="M69 371.6L65 436.6L74 440.3Z" fill="#0a001c" stroke="#0a001c"></path><path d="M81 516.4L117 486.3L88 447.7Z" fill="#191342" stroke="#191342"></path><path d="M21 421.7L65 436.6L69 371.6Z" fill="#33217a" stroke="#33217a"></path><path d="M106 66.9L153 81.6L161 35.7Z" fill="#33217a" stroke="#33217a"></path><path d="M112 97.9L75 141.7L113 146.4Z" fill="#140f35" stroke="#140f35"></path><path d="M731 72.9L693 0L633 55.7Z" fill="#2c1d6c" stroke="#2c1d6c"></path><path d="M719 0L693 0L731 72.9Z" fill="#0a001c" stroke="#0a001c"></path><path d="M838 421.6L829 376.9L811 402.9Z" fill="#4d29a6" stroke="#4d29a6"></path><path d="M811 402.9L829 376.9L793 369Z" fill="#2c1d6c" stroke="#2c1d6c"></path><path d="M838 421.6L811 402.9L807 409.6Z" fill="#2c1d6c" stroke="#2c1d6c"></path><path d="M24 234.1L38 268L59 207.4Z" fill="#442697" stroke="#442697"></path><path d="M59 207.4L38 268L124 224.1Z" fill="#4d29a6" stroke="#4d29a6"></path><path d="M828 172.4L757 166.6L813 198.3Z" fill="#33217a" stroke="#33217a"></path><path d="M828 172.4L792 109.7L757 166.6Z" fill="#0a001c" stroke="#0a001c"></path><path d="M257 -14.1L167 0L188 0Z" fill="#442697" stroke="#442697"></path><path d="M188 0L167 0L161 35.7Z" fill="#110828" stroke="#110828"></path><path d="M136 0L106 66.9L161 35.7Z" fill="#442697" stroke="#442697"></path><path d="M605 603.1L722 600L693 600Z" fill="#4d29a6" stroke="#4d29a6"></path><path d="M693 600L722 600L682 559.1Z" fill="#33217a" stroke="#33217a"></path><path d="M81 516.4L88 447.7L74 440.3Z" fill="#442697" stroke="#442697"></path><path d="M165 539.4L138 600L202 575.3Z" fill="#2c1d6c" stroke="#2c1d6c"></path><path d="M202 575.3L145 608.1L241 600Z" fill="#3b2489" stroke="#3b2489"></path><path d="M857 178.6L828 172.4L813 198.3Z" fill="#442697" stroke="#442697"></path><path d="M65 436.6L81 516.4L74 440.3Z" fill="#191342" stroke="#191342"></path><path d="M754 -5.1L719 0L731 72.9Z" fill="#191342" stroke="#191342"></path><path d="M693 0L719 0L678 -5.1Z" fill="#2c1d6c" stroke="#2c1d6c"></path><path d="M867 420.4L900 493.4L882 426.7Z" fill="#4d29a6" stroke="#4d29a6"></path><path d="M829 376.9L857 331.9L793 369Z" fill="#110828" stroke="#110828"></path><path d="M857 178.6L835 163.4L828 172.4Z" fill="#140f35" stroke="#140f35"></path><path d="M38 268L21 330L74 369.9Z" fill="#191342" stroke="#191342"></path><path d="M65 436.6L37 526.3L81 516.4Z" fill="#110828" stroke="#110828"></path><path d="M0 225.3L24 234.1L0 189.1Z" fill="#2c1d6c" stroke="#2c1d6c"></path><path d="M38 268L0 290L21 330Z" fill="#0a001c" stroke="#0a001c"></path><path d="M24 234.1L59 207.4L0 189.1Z" fill="#191342" stroke="#191342"></path><path d="M605 603.1L736 600L722 600Z" fill="#2c1d6c" stroke="#2c1d6c"></path><path d="M722 600L736 600L682 559.1Z" fill="#140f35" stroke="#140f35"></path><path d="M134 600L165 539.4L102 588.1Z" fill="#33217a" stroke="#33217a"></path><path d="M134 600L138 600L165 539.4Z" fill="#110828" stroke="#110828"></path><path d="M241 600L145 608.1L282 600Z" fill="#33217a" stroke="#33217a"></path><path d="M879 360L857 331.9L829 376.9Z" fill="#0a001c" stroke="#0a001c"></path><path d="M138 600L145 608.1L202 575.3Z" fill="#191342" stroke="#191342"></path><path d="M828 172.4L835 163.4L792 109.7Z" fill="#1f1750" stroke="#1f1750"></path><path d="M792 109.7L813 82.7L731 72.9Z" fill="#3b2489" stroke="#3b2489"></path><path d="M857 178.6L813 198.3L829 256.3Z" fill="#4d29a6" stroke="#4d29a6"></path><path d="M102 588.1L165 539.4L93 529.4Z" fill="#140f35" stroke="#140f35"></path><path d="M138 600L134 600L145 608.1Z" fill="#0a001c" stroke="#0a001c"></path><path d="M829 99.6L810 92.7L792 109.7Z" fill="#0a001c" stroke="#0a001c"></path><path d="M257 -14.1L136 0L167 0Z" fill="#110828" stroke="#110828"></path><path d="M167 0L136 0L161 35.7Z" fill="#2c1d6c" stroke="#2c1d6c"></path><path d="M106 66.9L59 73.6L112 97.9Z" fill="#140f35" stroke="#140f35"></path><path d="M0 360.7L21 421.7L69 371.6Z" fill="#0a001c" stroke="#0a001c"></path><path d="M829 99.6L813 82.7L810 92.7Z" fill="#0a001c" stroke="#0a001c"></path><path d="M810 92.7L813 82.7L792 109.7Z" fill="#442697" stroke="#442697"></path><path d="M24 234.1L0 290L38 268Z" fill="#33217a" stroke="#33217a"></path><path d="M21 330L0 360.7L69 371.6Z" fill="#1f1750" stroke="#1f1750"></path><path d="M900 201.1L857 178.6L829 256.3Z" fill="#3b2489" stroke="#3b2489"></path><path d="M835 163.4L829 99.6L792 109.7Z" fill="#0a001c" stroke="#0a001c"></path><path d="M0 290L0 330.9L21 330Z" fill="#191342" stroke="#191342"></path><path d="M900 285L875 270.1L857 331.9Z" fill="#4d29a6" stroke="#4d29a6"></path><path d="M857 331.9L875 270.1L829 256.3Z" fill="#2c1d6c" stroke="#2c1d6c"></path><path d="M37 526.3L102 588.1L93 529.4Z" fill="#1f1750" stroke="#1f1750"></path><path d="M134 600L51 624.1L145 608.1Z" fill="#4d29a6" stroke="#4d29a6"></path><path d="M37 526.3L93 529.4L81 516.4Z" fill="#1f1750" stroke="#1f1750"></path><path d="M-3 348.9L0 360.7L21 330Z" fill="#442697" stroke="#442697"></path><path d="M851 120.6L829 99.6L835 163.4Z" fill="#2c1d6c" stroke="#2c1d6c"></path><path d="M0 290L-3 348.9L0 330.9Z" fill="#191342" stroke="#191342"></path><path d="M0 330.9L-3 348.9L21 330Z" fill="#0a001c" stroke="#0a001c"></path><path d="M813 82.7L754 -5.1L731 72.9Z" fill="#442697" stroke="#442697"></path><path d="M719 0L754 -5.1L678 -5.1Z" fill="#0a001c" stroke="#0a001c"></path><path d="M678 -5.1L831 -24.1L635 -5.1Z" fill="#3b2489" stroke="#3b2489"></path><path d="M826 0L754 -5.1L813 82.7Z" fill="#3b2489" stroke="#3b2489"></path><path d="M109 0L59 73.6L106 66.9Z" fill="#3b2489" stroke="#3b2489"></path><path d="M24 234.1L0 225.3L0 290Z" fill="#1f1750" stroke="#1f1750"></path><path d="M0 189.1L59 207.4L0 175.6Z" fill="#33217a" stroke="#33217a"></path><path d="M0 290L-11 226.3L-3 348.9Z" fill="#140f35" stroke="#140f35"></path><path d="M900 493.4L838 421.6L749 489.3Z" fill="#33217a" stroke="#33217a"></path><path d="M838 421.6L875 409.6L829 376.9Z" fill="#110828" stroke="#110828"></path><path d="M875 409.6L879 360L829 376.9Z" fill="#191342" stroke="#191342"></path><path d="M257 -14.1L109 0L136 0Z" fill="#0a001c" stroke="#0a001c"></path><path d="M136 0L109 0L106 66.9Z" fill="#110828" stroke="#110828"></path><path d="M882 426.7L875 409.6L867 420.4Z" fill="#0a001c" stroke="#0a001c"></path><path d="M867 420.4L875 409.6L838 421.6Z" fill="#33217a" stroke="#33217a"></path><path d="M-3 348.9L-1 410.4L0 360.7Z" fill="#2c1d6c" stroke="#2c1d6c"></path><path d="M0 360.7L-1 410.4L21 421.7Z" fill="#191342" stroke="#191342"></path><path d="M0 484.3L37 526.3L65 436.6Z" fill="#442697" stroke="#442697"></path><path d="M0 175.6L59 207.4L75 141.7Z" fill="#2c1d6c" stroke="#2c1d6c"></path><path d="M0 225.3L-11 226.3L0 290Z" fill="#1f1750" stroke="#1f1750"></path><path d="M857 178.6L851 120.6L835 163.4Z" fill="#4d29a6" stroke="#4d29a6"></path><path d="M829 99.6L873 0L813 82.7Z" fill="#0a001c" stroke="#0a001c"></path><path d="M900 170.3L851 120.6L857 178.6Z" fill="#3b2489" stroke="#3b2489"></path><path d="M0 189.1L-11 226.3L0 225.3Z" fill="#191342" stroke="#191342"></path><path d="M-3 348.9L-26 572.1L-1 410.4Z" fill="#110828" stroke="#110828"></path><path d="M736 600L796 586.1L749 489.3Z" fill="#140f35" stroke="#140f35"></path><path d="M0 146.4L0 175.6L75 141.7Z" fill="#4d29a6" stroke="#4d29a6"></path><path d="M0 189.1L0 175.6L-11 226.3Z" fill="#191342" stroke="#191342"></path><path d="M0 451.6L65 436.6L21 421.7Z" fill="#4d29a6" stroke="#4d29a6"></path><path d="M909 456.4L882 426.7L900 493.4Z" fill="#442697" stroke="#442697"></path><path d="M900 374.7L900 347.9L879 360Z" fill="#1f1750" stroke="#1f1750"></path><path d="M900 347.9L900 285L857 331.9Z" fill="#251a5e" stroke="#251a5e"></path><path d="M-1 410.4L0 451.6L21 421.7Z" fill="#110828" stroke="#110828"></path><path d="M0 463.4L0 451.6L-26 572.1Z" fill="#110828" stroke="#110828"></path><path d="M900 347.9L857 331.9L879 360Z" fill="#33217a" stroke="#33217a"></path><path d="M875 270.1L900 201.1L829 256.3Z" fill="#191342" stroke="#191342"></path><path d="M900 374.7L879 360L875 409.6Z" fill="#191342" stroke="#191342"></path><path d="M0 484.3L0 463.4L-26 572.1Z" fill="#442697" stroke="#442697"></path><path d="M0 451.6L0 463.4L65 436.6Z" fill="#4d29a6" stroke="#4d29a6"></path><path d="M0 101.9L75 141.7L59 73.6Z" fill="#140f35" stroke="#140f35"></path><path d="M0 101.9L0 146.4L75 141.7Z" fill="#442697" stroke="#442697"></path><path d="M0 175.6L0 146.4L-11 226.3Z" fill="#3b2489" stroke="#3b2489"></path><path d="M900 416.6L900 374.7L875 409.6Z" fill="#1f1750" stroke="#1f1750"></path><path d="M-26 572.1L0 451.6L-1 410.4Z" fill="#2c1d6c" stroke="#2c1d6c"></path><path d="M0 463.4L0 484.3L65 436.6Z" fill="#251a5e" stroke="#251a5e"></path><path d="M900 285L900 201.1L875 270.1Z" fill="#0a001c" stroke="#0a001c"></path><path d="M909 456.4L900 416.6L882 426.7Z" fill="#3b2489" stroke="#3b2489"></path><path d="M882 426.7L900 416.6L875 409.6Z" fill="#1f1750" stroke="#1f1750"></path><path d="M900 201.1L900 183.6L857 178.6Z" fill="#251a5e" stroke="#251a5e"></path><path d="M851 120.6L883 106.4L829 99.6Z" fill="#442697" stroke="#442697"></path><path d="M-26 572.1L0 505.1L0 484.3Z" fill="#191342" stroke="#191342"></path><path d="M0 484.3L0 505.1L37 526.3Z" fill="#140f35" stroke="#140f35"></path><path d="M17 600L51 624.1L102 588.1Z" fill="#191342" stroke="#191342"></path><path d="M900 183.6L900 170.3L857 178.6Z" fill="#191342" stroke="#191342"></path><path d="M0 63.7L0 101.9L59 73.6Z" fill="#110828" stroke="#110828"></path><path d="M0 146.4L0 101.9L-11 226.3Z" fill="#1f1750" stroke="#1f1750"></path><path d="M900 416.6L918 373.7L900 374.7Z" fill="#4d29a6" stroke="#4d29a6"></path><path d="M900 374.7L918 373.7L900 347.9Z" fill="#3b2489" stroke="#3b2489"></path><path d="M900 347.9L918 373.7L900 285Z" fill="#110828" stroke="#110828"></path><path d="M900 285L918 373.7L900 201.1Z" fill="#110828" stroke="#110828"></path><path d="M900 201.1L918 373.7L900 183.6Z" fill="#1f1750" stroke="#1f1750"></path><path d="M900 183.6L918 373.7L900 170.3Z" fill="#4d29a6" stroke="#4d29a6"></path><path d="M900 170.3L883 106.4L851 120.6Z" fill="#4d29a6" stroke="#4d29a6"></path><path d="M835 600L848 575.1L796 586.1Z" fill="#442697" stroke="#442697"></path><path d="M796 586.1L848 575.1L749 489.3Z" fill="#1f1750" stroke="#1f1750"></path><path d="M900 416.6L909 456.4L918 373.7Z" fill="#33217a" stroke="#33217a"></path><path d="M873 0L826 0L813 82.7Z" fill="#1f1750" stroke="#1f1750"></path><path d="M838 602.1L835 600L796 586.1Z" fill="#251a5e" stroke="#251a5e"></path><path d="M838 602.1L796 586.1L736 600Z" fill="#2c1d6c" stroke="#2c1d6c"></path><path d="M900 493.4L867 420.4L838 421.6Z" fill="#140f35" stroke="#140f35"></path><path d="M835 600L839 600L848 575.1Z" fill="#1f1750" stroke="#1f1750"></path><path d="M900 502.3L900 493.4L749 489.3Z" fill="#251a5e" stroke="#251a5e"></path><path d="M838 602.1L839 600L835 600Z" fill="#140f35" stroke="#140f35"></path><path d="M605 603.1L838 602.1L736 600Z" fill="#2c1d6c" stroke="#2c1d6c"></path><path d="M900 502.3L749 489.3L848 575.1Z" fill="#33217a" stroke="#33217a"></path><path d="M51 624.1L838 602.1L605 603.1Z" fill="#110828" stroke="#110828"></path><path d="M900 502.3L848 575.1L900 518.1Z" fill="#442697" stroke="#442697"></path><path d="M30 0L0 63.7L59 73.6Z" fill="#33217a" stroke="#33217a"></path><path d="M0 101.9L0 63.7L-11 226.3Z" fill="#33217a" stroke="#33217a"></path><path d="M102 588.1L51 624.1L134 600Z" fill="#4d29a6" stroke="#4d29a6"></path><path d="M145 608.1L51 624.1L282 600Z" fill="#33217a" stroke="#33217a"></path><path d="M17 600L102 588.1L37 526.3Z" fill="#110828" stroke="#110828"></path><path d="M900 518.1L848 575.1L900 578.3Z" fill="#191342" stroke="#191342"></path><path d="M900 493.4L900 502.3L909 456.4Z" fill="#2c1d6c" stroke="#2c1d6c"></path><path d="M900 170.3L900 103.4L883 106.4Z" fill="#33217a" stroke="#33217a"></path><path d="M883 106.4L873 0L829 99.6Z" fill="#140f35" stroke="#140f35"></path><path d="M918 373.7L900 103.4L900 170.3Z" fill="#4d29a6" stroke="#4d29a6"></path><path d="M109 0L30 0L59 73.6Z" fill="#3b2489" stroke="#3b2489"></path><path d="M257 -14.1L30 0L109 0Z" fill="#0a001c" stroke="#0a001c"></path><path d="M900 578.3L848 575.1L900 600Z" fill="#3b2489" stroke="#3b2489"></path><path d="M900 502.3L900 518.1L909 456.4Z" fill="#0a001c" stroke="#0a001c"></path><path d="M826 0L831 -24.1L754 -5.1Z" fill="#0a001c" stroke="#0a001c"></path><path d="M754 -5.1L831 -24.1L678 -5.1Z" fill="#33217a" stroke="#33217a"></path><path d="M873 0L831 -24.1L826 0Z" fill="#3b2489" stroke="#3b2489"></path><path d="M0 600L17 600L-26 572.1Z" fill="#140f35" stroke="#140f35"></path><path d="M-26 572.1L37 526.3L0 505.1Z" fill="#0a001c" stroke="#0a001c"></path><path d="M-26 572.1L17 600L37 526.3Z" fill="#0a001c" stroke="#0a001c"></path><path d="M17 600L0 600L51 624.1Z" fill="#33217a" stroke="#33217a"></path><path d="M900 12.7L873 0L883 106.4Z" fill="#442697" stroke="#442697"></path><path d="M257 -14.1L0 0L30 0Z" fill="#442697" stroke="#442697"></path><path d="M30 0L0 0L0 63.7Z" fill="#1f1750" stroke="#1f1750"></path><path d="M0 63.7L0 0L-11 226.3Z" fill="#191342" stroke="#191342"></path><path d="M-11 226.3L-26 572.1L-3 348.9Z" fill="#33217a" stroke="#33217a"></path><path d="M900 600L848 575.1L839 600Z" fill="#251a5e" stroke="#251a5e"></path><path d="M900 518.1L900 578.3L909 456.4Z" fill="#4d29a6" stroke="#4d29a6"></path><path d="M909 456.4L900 600L918 373.7Z" fill="#4d29a6" stroke="#4d29a6"></path><path d="M-26 572.1L-23 600L0 600Z" fill="#1f1750" stroke="#1f1750"></path><path d="M0 600L-23 600L51 624.1Z" fill="#251a5e" stroke="#251a5e"></path><path d="M918 373.7L900 12.7L900 103.4Z" fill="#110828" stroke="#110828"></path><path d="M900 103.4L900 12.7L883 106.4Z" fill="#3b2489" stroke="#3b2489"></path><path d="M873 0L900 -10.1L831 -24.1Z" fill="#110828" stroke="#110828"></path><path d="M838 602.1L900 600L839 600Z" fill="#2c1d6c" stroke="#2c1d6c"></path><path d="M900 578.3L900 600L909 456.4Z" fill="#191342" stroke="#191342"></path><path d="M918 373.7L900 0L900 12.7Z" fill="#442697" stroke="#442697"></path><path d="M900 12.7L900 0L873 0Z" fill="#1f1750" stroke="#1f1750"></path><path d="M918 373.7L900 -10.1L900 0Z" fill="#1f1750" stroke="#1f1750"></path><path d="M900 0L900 -10.1L873 0Z" fill="#2c1d6c" stroke="#2c1d6c"></path></g></svg>