<svg id="visual" viewBox="0 0 900 600" width="900" height="600" xmlns="http://www.w3.org/2000/svg" xmlns:xlink="http://www.w3.org/1999/xlink" version="1.1"><g stroke-width="1" stroke-linejoin="bevel"><path d="M432 277L526 278L511 190Z" fill="#33217a" stroke="#33217a"></path><path d="M511 190L403 179L432 277Z" fill="#4d29a6" stroke="#4d29a6"></path><path d="M563 375L575 309L526 278Z" fill="#110828" stroke="#110828"></path><path d="M526 278L617 178L511 190Z" fill="#2c1d6c" stroke="#2c1d6c"></path><path d="M511 190L433 126L403 179Z" fill="#191342" stroke="#191342"></path><path d="M575 309L617 178L526 278Z" fill="#140f35" stroke="#140f35"></path><path d="M511 190L493 67L433 126Z" fill="#442697" stroke="#442697"></path><path d="M493 437L563 375L526 278Z" fill="#1f1750" stroke="#1f1750"></path><path d="M678 280L680 214L617 178Z" fill="#1f1750" stroke="#1f1750"></path><path d="M433 126L327 194L403 179Z" fill="#33217a" stroke="#33217a"></path><path d="M403 179L327 194L432 277Z" fill="#3b2489" stroke="#3b2489"></path><path d="M617 178L579 114L511 190Z" fill="#140f35" stroke="#140f35"></path><path d="M579 114L493 67L511 190Z" fill="#442697" stroke="#442697"></path><path d="M433 126L260 86L327 194Z" fill="#191342" stroke="#191342"></path><path d="M277 312L370 401L432 277Z" fill="#0a001c" stroke="#0a001c"></path><path d="M432 277L493 437L526 278Z" fill="#2c1d6c" stroke="#2c1d6c"></path><path d="M370 401L493 437L432 277Z" fill="#442697" stroke="#442697"></path><path d="M678 280L617 178L575 309Z" fill="#191342" stroke="#191342"></path><path d="M673 0L610 0L579 114Z" fill="#140f35" stroke="#140f35"></path><path d="M722 365L678 280L575 309Z" fill="#191342" stroke="#191342"></path><path d="M722 365L575 309L563 375Z" fill="#251a5e" stroke="#251a5e"></path><path d="M327 194L277 312L432 277Z" fill="#2c1d6c" stroke="#2c1d6c"></path><path d="M375 488L527 473L493 437Z" fill="#140f35" stroke="#140f35"></path><path d="M493 437L527 473L563 375Z" fill="#4d29a6" stroke="#4d29a6"></path><path d="M610 0L474 0L493 67Z" fill="#442697" stroke="#442697"></path><path d="M493 67L436 0L433 126Z" fill="#3b2489" stroke="#3b2489"></path><path d="M610 0L493 67L579 114Z" fill="#3b2489" stroke="#3b2489"></path><path d="M474 0L436 0L493 67Z" fill="#1f1750" stroke="#1f1750"></path><path d="M277 312L263 370L370 401Z" fill="#1f1750" stroke="#1f1750"></path><path d="M370 401L375 488L493 437Z" fill="#1f1750" stroke="#1f1750"></path><path d="M319 0L260 86L433 126Z" fill="#1f1750" stroke="#1f1750"></path><path d="M327 194L201 232L277 312Z" fill="#1f1750" stroke="#1f1750"></path><path d="M277 312L161 295L263 370Z" fill="#442697" stroke="#442697"></path><path d="M289 470L375 488L370 401Z" fill="#191342" stroke="#191342"></path><path d="M723 483L722 365L563 375Z" fill="#0a001c" stroke="#0a001c"></path><path d="M678 280L786 301L680 214Z" fill="#1f1750" stroke="#1f1750"></path><path d="M724 79L579 114L617 178Z" fill="#191342" stroke="#191342"></path><path d="M260 86L201 232L327 194Z" fill="#3b2489" stroke="#3b2489"></path><path d="M436 0L319 0L433 126Z" fill="#251a5e" stroke="#251a5e"></path><path d="M680 214L724 79L617 178Z" fill="#4d29a6" stroke="#4d29a6"></path><path d="M817 199L724 79L680 214Z" fill="#140f35" stroke="#140f35"></path><path d="M263 370L289 470L370 401Z" fill="#1f1750" stroke="#1f1750"></path><path d="M188 395L289 470L263 370Z" fill="#2c1d6c" stroke="#2c1d6c"></path><path d="M724 79L673 0L579 114Z" fill="#33217a" stroke="#33217a"></path><path d="M568 600L610 521L527 473Z" fill="#0a001c" stroke="#0a001c"></path><path d="M527 473L610 521L563 375Z" fill="#191342" stroke="#191342"></path><path d="M831 413L786 301L722 365Z" fill="#191342" stroke="#191342"></path><path d="M722 365L786 301L678 280Z" fill="#2c1d6c" stroke="#2c1d6c"></path><path d="M102 290L161 295L201 232Z" fill="#1f1750" stroke="#1f1750"></path><path d="M201 232L161 295L277 312Z" fill="#0a001c" stroke="#0a001c"></path><path d="M161 295L188 395L263 370Z" fill="#3b2489" stroke="#3b2489"></path><path d="M786 301L817 199L680 214Z" fill="#442697" stroke="#442697"></path><path d="M724 79L766 0L673 0Z" fill="#0a001c" stroke="#0a001c"></path><path d="M219 0L168 97L260 86Z" fill="#191342" stroke="#191342"></path><path d="M260 86L168 97L201 232Z" fill="#0a001c" stroke="#0a001c"></path><path d="M610 521L723 483L563 375Z" fill="#251a5e" stroke="#251a5e"></path><path d="M319 0L219 0L260 86Z" fill="#1f1750" stroke="#1f1750"></path><path d="M375 488L502 600L527 473Z" fill="#33217a" stroke="#33217a"></path><path d="M610 521L679 600L723 483Z" fill="#0a001c" stroke="#0a001c"></path><path d="M383 600L502 600L375 488Z" fill="#4d29a6" stroke="#4d29a6"></path><path d="M502 600L568 600L527 473Z" fill="#110828" stroke="#110828"></path><path d="M282 600L375 488L289 470Z" fill="#2c1d6c" stroke="#2c1d6c"></path><path d="M282 600L383 600L375 488Z" fill="#2c1d6c" stroke="#2c1d6c"></path><path d="M837 68L766 0L724 79Z" fill="#442697" stroke="#442697"></path><path d="M161 295L102 290L188 395Z" fill="#4d29a6" stroke="#4d29a6"></path><path d="M82 162L102 290L201 232Z" fill="#251a5e" stroke="#251a5e"></path><path d="M188 395L238 535L289 470Z" fill="#4d29a6" stroke="#4d29a6"></path><path d="M79 468L238 535L188 395Z" fill="#251a5e" stroke="#251a5e"></path><path d="M830 481L831 413L723 483Z" fill="#110828" stroke="#110828"></path><path d="M723 483L831 413L722 365Z" fill="#251a5e" stroke="#251a5e"></path><path d="M786 301L900 211L817 199Z" fill="#140f35" stroke="#140f35"></path><path d="M817 199L837 68L724 79Z" fill="#33217a" stroke="#33217a"></path><path d="M900 87L837 68L817 199Z" fill="#191342" stroke="#191342"></path><path d="M84 84L82 162L168 97Z" fill="#442697" stroke="#442697"></path><path d="M168 97L82 162L201 232Z" fill="#1f1750" stroke="#1f1750"></path><path d="M238 535L282 600L289 470Z" fill="#4d29a6" stroke="#4d29a6"></path><path d="M568 600L679 600L610 521Z" fill="#4d29a6" stroke="#4d29a6"></path><path d="M900 335L900 211L786 301Z" fill="#1f1750" stroke="#1f1750"></path><path d="M784 600L830 481L723 483Z" fill="#1f1750" stroke="#1f1750"></path><path d="M831 413L900 335L786 301Z" fill="#1f1750" stroke="#1f1750"></path><path d="M126 0L84 84L168 97Z" fill="#1f1750" stroke="#1f1750"></path><path d="M219 0L126 0L168 97Z" fill="#442697" stroke="#442697"></path><path d="M900 395L900 335L831 413Z" fill="#4d29a6" stroke="#4d29a6"></path><path d="M0 397L84 430L102 290Z" fill="#251a5e" stroke="#251a5e"></path><path d="M102 290L84 430L188 395Z" fill="#33217a" stroke="#33217a"></path><path d="M238 535L213 600L282 600Z" fill="#1f1750" stroke="#1f1750"></path><path d="M93 600L213 600L238 535Z" fill="#3b2489" stroke="#3b2489"></path><path d="M900 211L900 87L817 199Z" fill="#33217a" stroke="#33217a"></path><path d="M837 68L900 0L766 0Z" fill="#110828" stroke="#110828"></path><path d="M830 481L900 395L831 413Z" fill="#33217a" stroke="#33217a"></path><path d="M0 470L79 468L84 430Z" fill="#251a5e" stroke="#251a5e"></path><path d="M84 430L79 468L188 395Z" fill="#0a001c" stroke="#0a001c"></path><path d="M679 600L784 600L723 483Z" fill="#33217a" stroke="#33217a"></path><path d="M830 481L900 513L900 395Z" fill="#3b2489" stroke="#3b2489"></path><path d="M0 139L0 221L82 162Z" fill="#4d29a6" stroke="#4d29a6"></path><path d="M82 162L0 221L102 290Z" fill="#191342" stroke="#191342"></path><path d="M0 139L82 162L84 84Z" fill="#0a001c" stroke="#0a001c"></path><path d="M0 221L0 283L102 290Z" fill="#110828" stroke="#110828"></path><path d="M900 87L900 0L837 68Z" fill="#191342" stroke="#191342"></path><path d="M0 0L0 139L84 84Z" fill="#140f35" stroke="#140f35"></path><path d="M784 600L900 513L830 481Z" fill="#1f1750" stroke="#1f1750"></path><path d="M0 283L0 397L102 290Z" fill="#251a5e" stroke="#251a5e"></path><path d="M79 468L93 600L238 535Z" fill="#110828" stroke="#110828"></path><path d="M0 600L93 600L79 468Z" fill="#251a5e" stroke="#251a5e"></path><path d="M0 397L0 470L84 430Z" fill="#3b2489" stroke="#3b2489"></path><path d="M126 0L0 0L84 84Z" fill="#191342" stroke="#191342"></path><path d="M784 600L900 600L900 513Z" fill="#2c1d6c" stroke="#2c1d6c"></path><path d="M0 470L0 600L79 468Z" fill="#3b2489" stroke="#3b2489"></path></g></svg>