<svg id="visual" viewBox="0 0 900 600" width="900" height="600" xmlns="http://www.w3.org/2000/svg" xmlns:xlink="http://www.w3.org/1999/xlink" version="1.1"><g stroke-width="1" stroke-linejoin="bevel"><path d="M475 274L503 281L495 234.1Z" fill="#3b2489" stroke="#3b2489"></path><path d="M495 234.1L461 235.1L475 274Z" fill="#110828" stroke="#110828"></path><path d="M532 218.1L514 217.3L495 234.1Z" fill="#33217a" stroke="#33217a"></path><path d="M495 234.1L478 175.4L461 235.1Z" fill="#0a001c" stroke="#0a001c"></path><path d="M475 274L519 303L503 281Z" fill="#191342" stroke="#191342"></path><path d="M503 281L532 218.1L495 234.1Z" fill="#33217a" stroke="#33217a"></path><path d="M562 247.1L532 218.1L503 281Z" fill="#140f35" stroke="#140f35"></path><path d="M554 296L562 247.1L503 281Z" fill="#2c1d6c" stroke="#2c1d6c"></path><path d="M532 218.1L518 193.3L514 217.3Z" fill="#3b2489" stroke="#3b2489"></path><path d="M514 217.3L478 175.4L495 234.1Z" fill="#2c1d6c" stroke="#2c1d6c"></path><path d="M571 176.3L518 193.3L532 218.1Z" fill="#251a5e" stroke="#251a5e"></path><path d="M519 303L554 296L503 281Z" fill="#1f1750" stroke="#1f1750"></path><path d="M461 235.1L414 286L475 274Z" fill="#442697" stroke="#442697"></path><path d="M475 274L515 343.9L519 303Z" fill="#1f1750" stroke="#1f1750"></path><path d="M518 193.3L478 175.4L514 217.3Z" fill="#110828" stroke="#110828"></path><path d="M385 214.3L387 277.1L414 286Z" fill="#191342" stroke="#191342"></path><path d="M445 355.9L515 343.9L475 274Z" fill="#33217a" stroke="#33217a"></path><path d="M519 303L515 343.9L554 296Z" fill="#110828" stroke="#110828"></path><path d="M480 404.6L521 355.9L515 343.9Z" fill="#0a001c" stroke="#0a001c"></path><path d="M515 343.9L548 361.7L554 296Z" fill="#442697" stroke="#442697"></path><path d="M385 214.3L414 286L461 235.1Z" fill="#110828" stroke="#110828"></path><path d="M414 286L445 355.9L475 274Z" fill="#140f35" stroke="#140f35"></path><path d="M375 315.9L445 355.9L414 286Z" fill="#191342" stroke="#191342"></path><path d="M562 247.1L571 176.3L532 218.1Z" fill="#2c1d6c" stroke="#2c1d6c"></path><path d="M518 193.3L478 138.4L478 175.4Z" fill="#33217a" stroke="#33217a"></path><path d="M478 175.4L412 176.3L461 235.1Z" fill="#251a5e" stroke="#251a5e"></path><path d="M520 432.6L548 361.7L521 355.9Z" fill="#140f35" stroke="#140f35"></path><path d="M521 355.9L548 361.7L515 343.9Z" fill="#3b2489" stroke="#3b2489"></path><path d="M554 296L610 224.1L562 247.1Z" fill="#1f1750" stroke="#1f1750"></path><path d="M562 247.1L610 224.1L571 176.3Z" fill="#140f35" stroke="#140f35"></path><path d="M412 176.3L385 214.3L461 235.1Z" fill="#442697" stroke="#442697"></path><path d="M573 141.6L478 138.4L518 193.3Z" fill="#251a5e" stroke="#251a5e"></path><path d="M478 175.4L443 143.6L412 176.3Z" fill="#191342" stroke="#191342"></path><path d="M668 326L610 224.1L554 296Z" fill="#1f1750" stroke="#1f1750"></path><path d="M548 361.7L566 357.7L554 296Z" fill="#1f1750" stroke="#1f1750"></path><path d="M478 138.4L443 143.6L478 175.4Z" fill="#4d29a6" stroke="#4d29a6"></path><path d="M635 193.4L577 158.4L571 176.3Z" fill="#3b2489" stroke="#3b2489"></path><path d="M571 176.3L573 141.6L518 193.3Z" fill="#442697" stroke="#442697"></path><path d="M346 277L375 315.9L387 277.1Z" fill="#0a001c" stroke="#0a001c"></path><path d="M387 277.1L375 315.9L414 286Z" fill="#0a001c" stroke="#0a001c"></path><path d="M586 143.4L573 141.6L577 158.4Z" fill="#0a001c" stroke="#0a001c"></path><path d="M577 158.4L573 141.6L571 176.3Z" fill="#2c1d6c" stroke="#2c1d6c"></path><path d="M487 93.7L477 113.6L478 138.4Z" fill="#140f35" stroke="#140f35"></path><path d="M478 138.4L477 113.6L443 143.6Z" fill="#110828" stroke="#110828"></path><path d="M450 413.6L480 404.6L445 355.9Z" fill="#251a5e" stroke="#251a5e"></path><path d="M445 355.9L480 404.6L515 343.9Z" fill="#4d29a6" stroke="#4d29a6"></path><path d="M548 361.7L582 377.9L566 357.7Z" fill="#4d29a6" stroke="#4d29a6"></path><path d="M582 377.9L608 350.7L566 357.7Z" fill="#33217a" stroke="#33217a"></path><path d="M566 357.7L608 350.7L554 296Z" fill="#251a5e" stroke="#251a5e"></path><path d="M375 315.9L373 342.9L445 355.9Z" fill="#110828" stroke="#110828"></path><path d="M635 193.4L586 143.4L577 158.4Z" fill="#4d29a6" stroke="#4d29a6"></path><path d="M573 141.6L487 93.7L478 138.4Z" fill="#251a5e" stroke="#251a5e"></path><path d="M306 192.3L347 239.1L385 214.3Z" fill="#191342" stroke="#191342"></path><path d="M385 214.3L347 239.1L387 277.1Z" fill="#251a5e" stroke="#251a5e"></path><path d="M375 315.9L342 364.9L373 342.9Z" fill="#33217a" stroke="#33217a"></path><path d="M381 143.4L385 214.3L412 176.3Z" fill="#110828" stroke="#110828"></path><path d="M520 432.6L582 377.9L548 361.7Z" fill="#1f1750" stroke="#1f1750"></path><path d="M347 239.1L346 277L387 277.1Z" fill="#251a5e" stroke="#251a5e"></path><path d="M347 239.1L340 279.1L346 277Z" fill="#33217a" stroke="#33217a"></path><path d="M346 277L340 279.1L375 315.9Z" fill="#2c1d6c" stroke="#2c1d6c"></path><path d="M644 212.3L635 193.4L610 224.1Z" fill="#3b2489" stroke="#3b2489"></path><path d="M610 224.1L635 193.4L571 176.3Z" fill="#4d29a6" stroke="#4d29a6"></path><path d="M373 342.9L415 392.6L445 355.9Z" fill="#110828" stroke="#110828"></path><path d="M683 231.1L644 212.3L610 224.1Z" fill="#110828" stroke="#110828"></path><path d="M375 132.6L381 143.4L426 90.7Z" fill="#140f35" stroke="#140f35"></path><path d="M443 143.6L381 143.4L412 176.3Z" fill="#0a001c" stroke="#0a001c"></path><path d="M415 392.6L450 413.6L445 355.9Z" fill="#4d29a6" stroke="#4d29a6"></path><path d="M624 395.6L611 373.9L582 377.9Z" fill="#251a5e" stroke="#251a5e"></path><path d="M582 377.9L611 373.9L608 350.7Z" fill="#0a001c" stroke="#0a001c"></path><path d="M608 350.7L668 326L554 296Z" fill="#442697" stroke="#442697"></path><path d="M520 432.6L521 355.9L480 404.6Z" fill="#442697" stroke="#442697"></path><path d="M560 80.7L487 93.7L573 141.6Z" fill="#442697" stroke="#442697"></path><path d="M426 90.7L381 143.4L443 143.6Z" fill="#251a5e" stroke="#251a5e"></path><path d="M415 392.6L431 411.7L450 413.6Z" fill="#191342" stroke="#191342"></path><path d="M386 424.7L431 411.7L415 392.6Z" fill="#442697" stroke="#442697"></path><path d="M644 212.3L647 192.4L635 193.4Z" fill="#442697" stroke="#442697"></path><path d="M635 193.4L657 157.6L586 143.4Z" fill="#251a5e" stroke="#251a5e"></path><path d="M467 461.4L479 424.7L450 413.6Z" fill="#110828" stroke="#110828"></path><path d="M450 413.6L479 424.7L480 404.6Z" fill="#251a5e" stroke="#251a5e"></path><path d="M426 90.7L443 143.6L477 113.6Z" fill="#140f35" stroke="#140f35"></path><path d="M381 143.4L352 150.6L385 214.3Z" fill="#1f1750" stroke="#1f1750"></path><path d="M479 424.7L520 432.6L480 404.6Z" fill="#2c1d6c" stroke="#2c1d6c"></path><path d="M683 231.1L647 192.4L644 212.3Z" fill="#110828" stroke="#110828"></path><path d="M683 231.1L654 183.3L647 192.4Z" fill="#0a001c" stroke="#0a001c"></path><path d="M647 192.4L654 183.3L635 193.4Z" fill="#442697" stroke="#442697"></path><path d="M375 132.6L352 150.6L381 143.4Z" fill="#2c1d6c" stroke="#2c1d6c"></path><path d="M347 239.1L294 218.1L340 279.1Z" fill="#4d29a6" stroke="#4d29a6"></path><path d="M487 93.7L426 90.7L477 113.6Z" fill="#1f1750" stroke="#1f1750"></path><path d="M321 94.7L337 153.4L352 150.6Z" fill="#4d29a6" stroke="#4d29a6"></path><path d="M657 157.6L605 111.6L586 143.4Z" fill="#2c1d6c" stroke="#2c1d6c"></path><path d="M586 143.4L605 111.6L573 141.6Z" fill="#4d29a6" stroke="#4d29a6"></path><path d="M340 279.1L342 364.9L375 315.9Z" fill="#3b2489" stroke="#3b2489"></path><path d="M373 342.9L361 406.7L415 392.6Z" fill="#140f35" stroke="#140f35"></path><path d="M663 368.7L668 326L608 350.7Z" fill="#110828" stroke="#110828"></path><path d="M321 94.7L352 150.6L375 132.6Z" fill="#442697" stroke="#442697"></path><path d="M352 150.6L337 153.4L385 214.3Z" fill="#3b2489" stroke="#3b2489"></path><path d="M340 279.1L292 291L342 364.9Z" fill="#110828" stroke="#110828"></path><path d="M603 441.6L624 395.6L582 377.9Z" fill="#0a001c" stroke="#0a001c"></path><path d="M663 368.7L671 328L668 326Z" fill="#140f35" stroke="#140f35"></path><path d="M605 111.6L560 80.7L573 141.6Z" fill="#140f35" stroke="#140f35"></path><path d="M487 93.7L435 38.9L426 90.7Z" fill="#1f1750" stroke="#1f1750"></path><path d="M663 368.7L608 350.7L611 373.9Z" fill="#0a001c" stroke="#0a001c"></path><path d="M668 326L683 231.1L610 224.1Z" fill="#251a5e" stroke="#251a5e"></path><path d="M731 302.9L683 231.1L668 326Z" fill="#140f35" stroke="#140f35"></path><path d="M714 197.3L657 157.6L654 183.3Z" fill="#191342" stroke="#191342"></path><path d="M654 183.3L657 157.6L635 193.4Z" fill="#33217a" stroke="#33217a"></path><path d="M682 105.7L609 98.7L605 111.6Z" fill="#3b2489" stroke="#3b2489"></path><path d="M605 111.6L605 95.6L560 80.7Z" fill="#4d29a6" stroke="#4d29a6"></path><path d="M609 98.7L605 95.6L605 111.6Z" fill="#1f1750" stroke="#1f1750"></path><path d="M361 406.7L386 424.7L415 392.6Z" fill="#4d29a6" stroke="#4d29a6"></path><path d="M431 411.7L467 461.4L450 413.6Z" fill="#33217a" stroke="#33217a"></path><path d="M479 424.7L467 461.4L520 432.6Z" fill="#4d29a6" stroke="#4d29a6"></path><path d="M522 15.9L526 62.9L583 20.9Z" fill="#191342" stroke="#191342"></path><path d="M560 80.7L526 62.9L487 93.7Z" fill="#0a001c" stroke="#0a001c"></path><path d="M342 364.9L361 406.7L373 342.9Z" fill="#140f35" stroke="#140f35"></path><path d="M337 153.4L306 192.3L385 214.3Z" fill="#251a5e" stroke="#251a5e"></path><path d="M624 395.6L663 368.7L611 373.9Z" fill="#442697" stroke="#442697"></path><path d="M306 192.3L294 218.1L347 239.1Z" fill="#3b2489" stroke="#3b2489"></path><path d="M294 218.1L292 291L340 279.1Z" fill="#1f1750" stroke="#1f1750"></path><path d="M329 414.6L367 434.4L361 406.7Z" fill="#4d29a6" stroke="#4d29a6"></path><path d="M386 424.7L467 461.4L431 411.7Z" fill="#0a001c" stroke="#0a001c"></path><path d="M520 432.6L552 456.4L582 377.9Z" fill="#2c1d6c" stroke="#2c1d6c"></path><path d="M337 153.4L303 183.4L306 192.3Z" fill="#2c1d6c" stroke="#2c1d6c"></path><path d="M306 192.3L303 183.4L294 218.1Z" fill="#140f35" stroke="#140f35"></path><path d="M529 475.3L552 456.4L520 432.6Z" fill="#191342" stroke="#191342"></path><path d="M624 395.6L667 432.6L663 368.7Z" fill="#3b2489" stroke="#3b2489"></path><path d="M552 456.4L603 441.6L582 377.9Z" fill="#251a5e" stroke="#251a5e"></path><path d="M361 406.7L367 434.4L386 424.7Z" fill="#0a001c" stroke="#0a001c"></path><path d="M392 497.4L465 496.3L467 461.4Z" fill="#2c1d6c" stroke="#2c1d6c"></path><path d="M324 395.6L361 406.7L342 364.9Z" fill="#191342" stroke="#191342"></path><path d="M252 369.9L324 395.6L342 364.9Z" fill="#110828" stroke="#110828"></path><path d="M467 461.4L529 475.3L520 432.6Z" fill="#33217a" stroke="#33217a"></path><path d="M552 456.4L558 476.3L603 441.6Z" fill="#2c1d6c" stroke="#2c1d6c"></path><path d="M716 373.9L705 326.9L663 368.7Z" fill="#110828" stroke="#110828"></path><path d="M663 368.7L705 326.9L671 328Z" fill="#33217a" stroke="#33217a"></path><path d="M671 328L705 326.9L668 326Z" fill="#3b2489" stroke="#3b2489"></path><path d="M275 420.7L329 414.6L324 395.6Z" fill="#251a5e" stroke="#251a5e"></path><path d="M324 395.6L329 414.6L361 406.7Z" fill="#1f1750" stroke="#1f1750"></path><path d="M529 475.3L558 476.3L552 456.4Z" fill="#140f35" stroke="#140f35"></path><path d="M442 21.9L435 38.9L487 93.7Z" fill="#33217a" stroke="#33217a"></path><path d="M426 90.7L400 49.7L375 132.6Z" fill="#3b2489" stroke="#3b2489"></path><path d="M295 110.6L266 172.4L303 183.4Z" fill="#2c1d6c" stroke="#2c1d6c"></path><path d="M755 245.1L714 197.3L683 231.1Z" fill="#3b2489" stroke="#3b2489"></path><path d="M683 231.1L714 197.3L654 183.3Z" fill="#3b2489" stroke="#3b2489"></path><path d="M682 105.7L630 67.7L609 98.7Z" fill="#251a5e" stroke="#251a5e"></path><path d="M435 38.9L400 49.7L426 90.7Z" fill="#3b2489" stroke="#3b2489"></path><path d="M609 98.7L630 67.7L605 95.6Z" fill="#140f35" stroke="#140f35"></path><path d="M605 95.6L630 67.7L560 80.7Z" fill="#33217a" stroke="#33217a"></path><path d="M526 62.9L442 21.9L487 93.7Z" fill="#4d29a6" stroke="#4d29a6"></path><path d="M682 105.7L605 111.6L657 157.6Z" fill="#2c1d6c" stroke="#2c1d6c"></path><path d="M651 445.4L650 434.4L603 441.6Z" fill="#1f1750" stroke="#1f1750"></path><path d="M603 441.6L650 434.4L624 395.6Z" fill="#2c1d6c" stroke="#2c1d6c"></path><path d="M465 496.3L475 494.4L467 461.4Z" fill="#0a001c" stroke="#0a001c"></path><path d="M467 461.4L475 494.4L529 475.3Z" fill="#4d29a6" stroke="#4d29a6"></path><path d="M529 475.3L561 505.4L558 476.3Z" fill="#33217a" stroke="#33217a"></path><path d="M467 461.4L386 424.7L392 497.4Z" fill="#442697" stroke="#442697"></path><path d="M400 49.7L321 94.7L375 132.6Z" fill="#110828" stroke="#110828"></path><path d="M241 226.3L292 291L294 218.1Z" fill="#110828" stroke="#110828"></path><path d="M392 497.4L386 424.7L367 434.4Z" fill="#140f35" stroke="#140f35"></path><path d="M235 281.1L259 310.9L292 291Z" fill="#4d29a6" stroke="#4d29a6"></path><path d="M292 291L259 310.9L342 364.9Z" fill="#191342" stroke="#191342"></path><path d="M266 172.4L294 218.1L303 183.4Z" fill="#140f35" stroke="#140f35"></path><path d="M750 350.7L731 302.9L705 326.9Z" fill="#33217a" stroke="#33217a"></path><path d="M705 326.9L731 302.9L668 326Z" fill="#4d29a6" stroke="#4d29a6"></path><path d="M435 38.9L424 0L400 49.7Z" fill="#110828" stroke="#110828"></path><path d="M328 9.9L313 87.7L321 94.7Z" fill="#110828" stroke="#110828"></path><path d="M522 15.9L442 21.9L526 62.9Z" fill="#110828" stroke="#110828"></path><path d="M704 121.6L682 105.7L657 157.6Z" fill="#442697" stroke="#442697"></path><path d="M713 119.7L707 141.4L750 158.4Z" fill="#110828" stroke="#110828"></path><path d="M714 197.3L707 141.4L657 157.6Z" fill="#251a5e" stroke="#251a5e"></path><path d="M295 110.6L303 183.4L337 153.4Z" fill="#442697" stroke="#442697"></path><path d="M583 20.9L526 62.9L560 80.7Z" fill="#191342" stroke="#191342"></path><path d="M604 480.3L651 445.4L603 441.6Z" fill="#251a5e" stroke="#251a5e"></path><path d="M650 434.4L667 432.6L624 395.6Z" fill="#191342" stroke="#191342"></path><path d="M651 445.4L667 432.6L650 434.4Z" fill="#251a5e" stroke="#251a5e"></path><path d="M731 302.9L740 271L683 231.1Z" fill="#4d29a6" stroke="#4d29a6"></path><path d="M561 505.4L604 480.3L558 476.3Z" fill="#191342" stroke="#191342"></path><path d="M558 476.3L604 480.3L603 441.6Z" fill="#251a5e" stroke="#251a5e"></path><path d="M561 505.4L529 475.3L531 549.3Z" fill="#442697" stroke="#442697"></path><path d="M321 94.7L295 110.6L337 153.4Z" fill="#251a5e" stroke="#251a5e"></path><path d="M328 9.9L321 94.7L400 49.7Z" fill="#110828" stroke="#110828"></path><path d="M321 94.7L313 87.7L295 110.6Z" fill="#442697" stroke="#442697"></path><path d="M667 432.6L716 373.9L663 368.7Z" fill="#33217a" stroke="#33217a"></path><path d="M731 302.9L750 293.1L740 271Z" fill="#191342" stroke="#191342"></path><path d="M713 119.7L704 121.6L707 141.4Z" fill="#3b2489" stroke="#3b2489"></path><path d="M707 141.4L704 121.6L657 157.6Z" fill="#3b2489" stroke="#3b2489"></path><path d="M578 0L583 20.9L608 8.9Z" fill="#140f35" stroke="#140f35"></path><path d="M608 8.9L630 67.7L639 0Z" fill="#442697" stroke="#442697"></path><path d="M630 67.7L583 20.9L560 80.7Z" fill="#251a5e" stroke="#251a5e"></path><path d="M266 172.4L241 226.3L294 218.1Z" fill="#191342" stroke="#191342"></path><path d="M531 549.3L529 475.3L475 494.4Z" fill="#140f35" stroke="#140f35"></path><path d="M760 326L750 293.1L731 302.9Z" fill="#0a001c" stroke="#0a001c"></path><path d="M750 158.4L707 141.4L714 197.3Z" fill="#191342" stroke="#191342"></path><path d="M755 245.1L683 231.1L740 271Z" fill="#2c1d6c" stroke="#2c1d6c"></path><path d="M704 121.6L713 119.7L682 105.7Z" fill="#191342" stroke="#191342"></path><path d="M370 523.3L392 497.4L302 498.3Z" fill="#1f1750" stroke="#1f1750"></path><path d="M509 568.1L531 549.3L475 494.4Z" fill="#1f1750" stroke="#1f1750"></path><path d="M241 226.3L235 281.1L292 291Z" fill="#1f1750" stroke="#1f1750"></path><path d="M259 310.9L252 369.9L342 364.9Z" fill="#1f1750" stroke="#1f1750"></path><path d="M578 0L524 0L522 15.9Z" fill="#2c1d6c" stroke="#2c1d6c"></path><path d="M522 15.9L524 0L442 21.9Z" fill="#2c1d6c" stroke="#2c1d6c"></path><path d="M750 293.1L755 245.1L740 271Z" fill="#110828" stroke="#110828"></path><path d="M235 281.1L236 318L259 310.9Z" fill="#191342" stroke="#191342"></path><path d="M302 498.3L392 497.4L367 434.4Z" fill="#140f35" stroke="#140f35"></path><path d="M236 318L252 369.9L259 310.9Z" fill="#1f1750" stroke="#1f1750"></path><path d="M524 0L430 0L442 21.9Z" fill="#110828" stroke="#110828"></path><path d="M442 21.9L424 0L435 38.9Z" fill="#33217a" stroke="#33217a"></path><path d="M430 0L424 0L442 21.9Z" fill="#442697" stroke="#442697"></path><path d="M608 8.9L583 20.9L630 67.7Z" fill="#1f1750" stroke="#1f1750"></path><path d="M583 20.9L578 0L522 15.9Z" fill="#1f1750" stroke="#1f1750"></path><path d="M774 384.7L750 350.7L716 373.9Z" fill="#1f1750" stroke="#1f1750"></path><path d="M716 373.9L750 350.7L705 326.9Z" fill="#191342" stroke="#191342"></path><path d="M750 293.1L831 270.1L755 245.1Z" fill="#4d29a6" stroke="#4d29a6"></path><path d="M252 369.9L275 420.7L324 395.6Z" fill="#1f1750" stroke="#1f1750"></path><path d="M266 172.4L227 197.4L241 226.3Z" fill="#0a001c" stroke="#0a001c"></path><path d="M241 226.3L207 282L235 281.1Z" fill="#442697" stroke="#442697"></path><path d="M235 281.1L212 309.9L236 318Z" fill="#191342" stroke="#191342"></path><path d="M233 145.6L227 197.4L266 172.4Z" fill="#110828" stroke="#110828"></path><path d="M704 72.9L630 67.7L682 105.7Z" fill="#191342" stroke="#191342"></path><path d="M750 350.7L760 326L731 302.9Z" fill="#251a5e" stroke="#251a5e"></path><path d="M791 183.3L750 158.4L714 197.3Z" fill="#110828" stroke="#110828"></path><path d="M713 119.7L704 72.9L682 105.7Z" fill="#2c1d6c" stroke="#2c1d6c"></path><path d="M791 183.3L714 197.3L755 245.1Z" fill="#0a001c" stroke="#0a001c"></path><path d="M741 108.7L704 72.9L713 119.7Z" fill="#110828" stroke="#110828"></path><path d="M424 0L377 0L400 49.7Z" fill="#4d29a6" stroke="#4d29a6"></path><path d="M258 95.6L233 145.6L295 110.6Z" fill="#110828" stroke="#110828"></path><path d="M295 110.6L233 145.6L266 172.4Z" fill="#3b2489" stroke="#3b2489"></path><path d="M258 95.6L295 110.6L264 68.7Z" fill="#110828" stroke="#110828"></path><path d="M230 428.6L258 419.7L252 369.9Z" fill="#1f1750" stroke="#1f1750"></path><path d="M252 369.9L258 419.7L275 420.7Z" fill="#140f35" stroke="#140f35"></path><path d="M302 498.3L367 434.4L329 414.6Z" fill="#191342" stroke="#191342"></path><path d="M207 282L212 309.9L235 281.1Z" fill="#4d29a6" stroke="#4d29a6"></path><path d="M236 318L213 350.7L252 369.9Z" fill="#1f1750" stroke="#1f1750"></path><path d="M207 282L241 226.3L194 227.1Z" fill="#3b2489" stroke="#3b2489"></path><path d="M264 68.7L295 110.6L313 87.7Z" fill="#251a5e" stroke="#251a5e"></path><path d="M750 350.7L772 329L760 326Z" fill="#1f1750" stroke="#1f1750"></path><path d="M760 326L772 329L750 293.1Z" fill="#251a5e" stroke="#251a5e"></path><path d="M200 207.4L241 226.3L227 197.4Z" fill="#33217a" stroke="#33217a"></path><path d="M750 158.4L741 108.7L713 119.7Z" fill="#191342" stroke="#191342"></path><path d="M233 145.6L211 193.3L227 197.4Z" fill="#2c1d6c" stroke="#2c1d6c"></path><path d="M302 498.3L329 414.6L275 420.7Z" fill="#0a001c" stroke="#0a001c"></path><path d="M392 497.4L387 543.3L465 496.3Z" fill="#191342" stroke="#191342"></path><path d="M509 568.1L475 494.4L465 496.3Z" fill="#191342" stroke="#191342"></path><path d="M561 505.4L622 546.1L604 480.3Z" fill="#442697" stroke="#442697"></path><path d="M734 450.6L667 432.6L726 482.3Z" fill="#3b2489" stroke="#3b2489"></path><path d="M734 450.6L716 373.9L667 432.6Z" fill="#251a5e" stroke="#251a5e"></path><path d="M212 309.9L213 350.7L236 318Z" fill="#442697" stroke="#442697"></path><path d="M140 348.7L213 350.7L212 309.9Z" fill="#251a5e" stroke="#251a5e"></path><path d="M752 0L685 32.9L704 72.9Z" fill="#33217a" stroke="#33217a"></path><path d="M704 72.9L685 32.9L630 67.7Z" fill="#140f35" stroke="#140f35"></path><path d="M654 0L639 0L630 67.7Z" fill="#110828" stroke="#110828"></path><path d="M608 8.9L639 0L578 0Z" fill="#110828" stroke="#110828"></path><path d="M301 14.9L264 68.7L313 87.7Z" fill="#4d29a6" stroke="#4d29a6"></path><path d="M258 95.6L212 79.7L233 145.6Z" fill="#110828" stroke="#110828"></path><path d="M148 161.6L200 207.4L211 193.3Z" fill="#1f1750" stroke="#1f1750"></path><path d="M148 161.6L211 193.3L233 145.6Z" fill="#140f35" stroke="#140f35"></path><path d="M211 193.3L200 207.4L227 197.4Z" fill="#0a001c" stroke="#0a001c"></path><path d="M207 282L185 287L212 309.9Z" fill="#2c1d6c" stroke="#2c1d6c"></path><path d="M377 0L328 9.9L400 49.7Z" fill="#2c1d6c" stroke="#2c1d6c"></path><path d="M200 207.4L194 227.1L241 226.3Z" fill="#0a001c" stroke="#0a001c"></path><path d="M685 32.9L654 0L630 67.7Z" fill="#251a5e" stroke="#251a5e"></path><path d="M348 583.1L387 543.3L370 523.3Z" fill="#4d29a6" stroke="#4d29a6"></path><path d="M370 523.3L387 543.3L392 497.4Z" fill="#33217a" stroke="#33217a"></path><path d="M148 161.6L191 224.3L200 207.4Z" fill="#1f1750" stroke="#1f1750"></path><path d="M200 207.4L191 224.3L194 227.1Z" fill="#140f35" stroke="#140f35"></path><path d="M194 227.1L185 287L207 282Z" fill="#110828" stroke="#110828"></path><path d="M846 236.3L791 183.3L755 245.1Z" fill="#442697" stroke="#442697"></path><path d="M799 108.6L763 78.9L741 108.7Z" fill="#442697" stroke="#442697"></path><path d="M286 504.4L275 420.7L278 505.4Z" fill="#251a5e" stroke="#251a5e"></path><path d="M286 504.4L302 498.3L275 420.7Z" fill="#2c1d6c" stroke="#2c1d6c"></path><path d="M741 449.4L774 384.7L716 373.9Z" fill="#110828" stroke="#110828"></path><path d="M750 350.7L780 379.7L772 329Z" fill="#3b2489" stroke="#3b2489"></path><path d="M831 286L831 270.1L750 293.1Z" fill="#33217a" stroke="#33217a"></path><path d="M667 432.6L651 445.4L726 482.3Z" fill="#2c1d6c" stroke="#2c1d6c"></path><path d="M671 534.1L651 445.4L604 480.3Z" fill="#2c1d6c" stroke="#2c1d6c"></path><path d="M430 583.1L509 568.1L465 496.3Z" fill="#2c1d6c" stroke="#2c1d6c"></path><path d="M726 482.3L741 449.4L734 450.6Z" fill="#251a5e" stroke="#251a5e"></path><path d="M140 280L185 287L133 238.1Z" fill="#251a5e" stroke="#251a5e"></path><path d="M328 9.9L301 14.9L313 87.7Z" fill="#0a001c" stroke="#0a001c"></path><path d="M304 3.9L301 14.9L328 9.9Z" fill="#0a001c" stroke="#0a001c"></path><path d="M787 434.4L780 379.7L774 384.7Z" fill="#33217a" stroke="#33217a"></path><path d="M774 384.7L780 379.7L750 350.7Z" fill="#33217a" stroke="#33217a"></path><path d="M622 546.1L561 505.4L531 549.3Z" fill="#0a001c" stroke="#0a001c"></path><path d="M734 450.6L741 449.4L716 373.9Z" fill="#1f1750" stroke="#1f1750"></path><path d="M200 441.4L230 428.6L194 434.6Z" fill="#4d29a6" stroke="#4d29a6"></path><path d="M213 350.7L230 428.6L252 369.9Z" fill="#442697" stroke="#442697"></path><path d="M575 600L622 546.1L531 549.3Z" fill="#1f1750" stroke="#1f1750"></path><path d="M377 0L304 3.9L328 9.9Z" fill="#3b2489" stroke="#3b2489"></path><path d="M222 43.9L234 68.7L264 68.7Z" fill="#251a5e" stroke="#251a5e"></path><path d="M285 0L264 68.7L301 14.9Z" fill="#110828" stroke="#110828"></path><path d="M264 68.7L234 68.7L258 95.6Z" fill="#3b2489" stroke="#3b2489"></path><path d="M232 453.6L275 420.7L258 419.7Z" fill="#3b2489" stroke="#3b2489"></path><path d="M302 498.3L297 541.3L370 523.3Z" fill="#442697" stroke="#442697"></path><path d="M714 505.3L726 482.3L651 445.4Z" fill="#2c1d6c" stroke="#2c1d6c"></path><path d="M741 449.4L787 434.4L774 384.7Z" fill="#442697" stroke="#442697"></path><path d="M799 108.6L741 108.7L750 158.4Z" fill="#0a001c" stroke="#0a001c"></path><path d="M741 108.7L763 78.9L704 72.9Z" fill="#442697" stroke="#442697"></path><path d="M685 32.9L752 0L654 0Z" fill="#0a001c" stroke="#0a001c"></path><path d="M622 546.1L656 540.1L604 480.3Z" fill="#4d29a6" stroke="#4d29a6"></path><path d="M689 547.1L656 540.1L665 600Z" fill="#110828" stroke="#110828"></path><path d="M200 441.4L232 453.6L230 428.6Z" fill="#110828" stroke="#110828"></path><path d="M230 428.6L232 453.6L258 419.7Z" fill="#2c1d6c" stroke="#2c1d6c"></path><path d="M656 540.1L671 534.1L604 480.3Z" fill="#442697" stroke="#442697"></path><path d="M232 453.6L278 505.4L275 420.7Z" fill="#110828" stroke="#110828"></path><path d="M348 583.1L399 573.1L387 543.3Z" fill="#33217a" stroke="#33217a"></path><path d="M297 541.3L302 498.3L286 504.4Z" fill="#0a001c" stroke="#0a001c"></path><path d="M387 543.3L430 583.1L465 496.3Z" fill="#2c1d6c" stroke="#2c1d6c"></path><path d="M377 0L289 0L304 3.9Z" fill="#140f35" stroke="#140f35"></path><path d="M304 3.9L289 0L301 14.9Z" fill="#3b2489" stroke="#3b2489"></path><path d="M671 534.1L714 505.3L651 445.4Z" fill="#1f1750" stroke="#1f1750"></path><path d="M837 309.9L772 329L827 365.9Z" fill="#140f35" stroke="#140f35"></path><path d="M399 573.1L430 583.1L387 543.3Z" fill="#140f35" stroke="#140f35"></path><path d="M509 600L520 589.1L509 568.1Z" fill="#140f35" stroke="#140f35"></path><path d="M509 568.1L520 589.1L531 549.3Z" fill="#140f35" stroke="#140f35"></path><path d="M289 0L285 0L301 14.9Z" fill="#251a5e" stroke="#251a5e"></path><path d="M222 43.9L212 79.7L234 68.7Z" fill="#251a5e" stroke="#251a5e"></path><path d="M234 68.7L212 79.7L258 95.6Z" fill="#3b2489" stroke="#3b2489"></path><path d="M831 286L750 293.1L772 329Z" fill="#191342" stroke="#191342"></path><path d="M791 183.3L799 108.6L750 158.4Z" fill="#4d29a6" stroke="#4d29a6"></path><path d="M837 309.9L831 286L772 329Z" fill="#33217a" stroke="#33217a"></path><path d="M773 463.4L741 449.4L726 482.3Z" fill="#442697" stroke="#442697"></path><path d="M837 143.4L799 108.6L791 183.3Z" fill="#442697" stroke="#442697"></path><path d="M689 547.1L733 502.3L714 505.3Z" fill="#2c1d6c" stroke="#2c1d6c"></path><path d="M714 505.3L733 502.3L726 482.3Z" fill="#251a5e" stroke="#251a5e"></path><path d="M430 583.1L509 600L509 568.1Z" fill="#110828" stroke="#110828"></path><path d="M520 589.1L575 600L531 549.3Z" fill="#251a5e" stroke="#251a5e"></path><path d="M656 540.1L689 547.1L671 534.1Z" fill="#191342" stroke="#191342"></path><path d="M773 463.4L787 434.4L741 449.4Z" fill="#191342" stroke="#191342"></path><path d="M257 543.3L297 541.3L278 505.4Z" fill="#191342" stroke="#191342"></path><path d="M278 505.4L297 541.3L286 504.4Z" fill="#191342" stroke="#191342"></path><path d="M399 573.1L426 600L430 583.1Z" fill="#1f1750" stroke="#1f1750"></path><path d="M799 108.6L780 65.7L763 78.9Z" fill="#442697" stroke="#442697"></path><path d="M763 78.9L752 0L704 72.9Z" fill="#110828" stroke="#110828"></path><path d="M194 434.6L230 428.6L213 350.7Z" fill="#1f1750" stroke="#1f1750"></path><path d="M232 453.6L235 489.4L278 505.4Z" fill="#2c1d6c" stroke="#2c1d6c"></path><path d="M285 0L222 43.9L264 68.7Z" fill="#3b2489" stroke="#3b2489"></path><path d="M733 502.3L773 463.4L726 482.3Z" fill="#251a5e" stroke="#251a5e"></path><path d="M200 441.4L235 489.4L232 453.6Z" fill="#0a001c" stroke="#0a001c"></path><path d="M848 253.3L846 236.3L831 270.1Z" fill="#4d29a6" stroke="#4d29a6"></path><path d="M827 365.9L772 329L780 379.7Z" fill="#442697" stroke="#442697"></path><path d="M163 422.7L194 434.6L213 350.7Z" fill="#4d29a6" stroke="#4d29a6"></path><path d="M209 524.3L253 536.1L235 489.4Z" fill="#140f35" stroke="#140f35"></path><path d="M380 600L426 600L399 573.1Z" fill="#191342" stroke="#191342"></path><path d="M430 583.1L426 600L509 600Z" fill="#442697" stroke="#442697"></path><path d="M671 534.1L689 547.1L714 505.3Z" fill="#140f35" stroke="#140f35"></path><path d="M851 446.4L802 449.6L838 518.1Z" fill="#140f35" stroke="#140f35"></path><path d="M665 600L656 540.1L622 546.1Z" fill="#2c1d6c" stroke="#2c1d6c"></path><path d="M848 416.6L780 379.7L787 434.4Z" fill="#3b2489" stroke="#3b2489"></path><path d="M848 416.6L827 365.9L780 379.7Z" fill="#0a001c" stroke="#0a001c"></path><path d="M509 600L575 600L520 589.1Z" fill="#4d29a6" stroke="#4d29a6"></path><path d="M848 253.3L831 270.1L831 286Z" fill="#110828" stroke="#110828"></path><path d="M831 270.1L846 236.3L755 245.1Z" fill="#442697" stroke="#442697"></path><path d="M222 43.9L190 77.9L212 79.7Z" fill="#3b2489" stroke="#3b2489"></path><path d="M212 79.7L190 77.9L233 145.6Z" fill="#1f1750" stroke="#1f1750"></path><path d="M133 238.1L185 287L194 227.1Z" fill="#3b2489" stroke="#3b2489"></path><path d="M900 285.1L848 253.3L831 286Z" fill="#251a5e" stroke="#251a5e"></path><path d="M846 236.3L848 253.3L900 218.3Z" fill="#442697" stroke="#442697"></path><path d="M133 238.1L194 227.1L191 224.3Z" fill="#140f35" stroke="#140f35"></path><path d="M185 287L140 348.7L212 309.9Z" fill="#4d29a6" stroke="#4d29a6"></path><path d="M900 218.3L847 229.1L846 236.3Z" fill="#33217a" stroke="#33217a"></path><path d="M846 236.3L847 229.1L791 183.3Z" fill="#251a5e" stroke="#251a5e"></path><path d="M297 541.3L348 583.1L370 523.3Z" fill="#442697" stroke="#442697"></path><path d="M847 229.1L839 165.6L791 183.3Z" fill="#251a5e" stroke="#251a5e"></path><path d="M799 108.6L835 57.7L780 65.7Z" fill="#1f1750" stroke="#1f1750"></path><path d="M190 77.9L148 161.6L233 145.6Z" fill="#251a5e" stroke="#251a5e"></path><path d="M348 583.1L380 600L399 573.1Z" fill="#33217a" stroke="#33217a"></path><path d="M148 161.6L133 238.1L191 224.3Z" fill="#33217a" stroke="#33217a"></path><path d="M877 132.6L837 143.4L839 165.6Z" fill="#442697" stroke="#442697"></path><path d="M839 165.6L837 143.4L791 183.3Z" fill="#1f1750" stroke="#1f1750"></path><path d="M773 463.4L802 449.6L787 434.4Z" fill="#251a5e" stroke="#251a5e"></path><path d="M802 449.6L773 463.4L815 528.3Z" fill="#251a5e" stroke="#251a5e"></path><path d="M575 600L622 600L622 546.1Z" fill="#0a001c" stroke="#0a001c"></path><path d="M112 356.7L140 348.7L96 287Z" fill="#110828" stroke="#110828"></path><path d="M140 280L140 348.7L185 287Z" fill="#33217a" stroke="#33217a"></path><path d="M801 0L752 0L780 65.7Z" fill="#3b2489" stroke="#3b2489"></path><path d="M780 65.7L752 0L763 78.9Z" fill="#442697" stroke="#442697"></path><path d="M235 489.4L253 536.1L278 505.4Z" fill="#442697" stroke="#442697"></path><path d="M297 541.3L307 578.1L348 583.1Z" fill="#1f1750" stroke="#1f1750"></path><path d="M348 583.1L328 600L380 600Z" fill="#33217a" stroke="#33217a"></path><path d="M209 524.3L235 489.4L200 441.4Z" fill="#2c1d6c" stroke="#2c1d6c"></path><path d="M138 498.3L200 441.4L194 434.6Z" fill="#1f1750" stroke="#1f1750"></path><path d="M156 418.6L163 422.7L213 350.7Z" fill="#4d29a6" stroke="#4d29a6"></path><path d="M280 575.1L307 578.1L297 541.3Z" fill="#191342" stroke="#191342"></path><path d="M209 524.3L257 543.3L253 536.1Z" fill="#2c1d6c" stroke="#2c1d6c"></path><path d="M253 536.1L257 543.3L278 505.4Z" fill="#1f1750" stroke="#1f1750"></path><path d="M140 348.7L156 418.6L213 350.7Z" fill="#3b2489" stroke="#3b2489"></path><path d="M178 548.1L209 524.3L138 498.3Z" fill="#33217a" stroke="#33217a"></path><path d="M323 600L328 600L307 578.1Z" fill="#110828" stroke="#110828"></path><path d="M307 578.1L328 600L348 583.1Z" fill="#110828" stroke="#110828"></path><path d="M266 600L323 600L307 578.1Z" fill="#4d29a6" stroke="#4d29a6"></path><path d="M622 600L665 600L622 546.1Z" fill="#0a001c" stroke="#0a001c"></path><path d="M689 547.1L727 600L733 502.3Z" fill="#191342" stroke="#191342"></path><path d="M266 600L280 575.1L248 600Z" fill="#191342" stroke="#191342"></path><path d="M257 543.3L280 575.1L297 541.3Z" fill="#251a5e" stroke="#251a5e"></path><path d="M851 446.4L848 416.6L802 449.6Z" fill="#4d29a6" stroke="#4d29a6"></path><path d="M802 449.6L848 416.6L787 434.4Z" fill="#140f35" stroke="#140f35"></path><path d="M900 295L900 285.1L837 309.9Z" fill="#2c1d6c" stroke="#2c1d6c"></path><path d="M285 0L204 0L222 43.9Z" fill="#33217a" stroke="#33217a"></path><path d="M222 43.9L157 52.9L190 77.9Z" fill="#2c1d6c" stroke="#2c1d6c"></path><path d="M190 77.9L128 123.6L148 161.6Z" fill="#1f1750" stroke="#1f1750"></path><path d="M209 524.3L200 441.4L138 498.3Z" fill="#191342" stroke="#191342"></path><path d="M157 52.9L128 123.6L190 77.9Z" fill="#442697" stroke="#442697"></path><path d="M148 161.6L98 204.3L133 238.1Z" fill="#33217a" stroke="#33217a"></path><path d="M900 218.3L878 187.4L847 229.1Z" fill="#2c1d6c" stroke="#2c1d6c"></path><path d="M847 229.1L878 187.4L839 165.6Z" fill="#3b2489" stroke="#3b2489"></path><path d="M846 74.9L835 57.7L799 108.6Z" fill="#3b2489" stroke="#3b2489"></path><path d="M900 285.1L831 286L837 309.9Z" fill="#110828" stroke="#110828"></path><path d="M96 287L140 348.7L140 280Z" fill="#0a001c" stroke="#0a001c"></path><path d="M140 348.7L112 356.7L156 418.6Z" fill="#3b2489" stroke="#3b2489"></path><path d="M138 498.3L194 434.6L163 422.7Z" fill="#442697" stroke="#442697"></path><path d="M96 287L140 280L133 238.1Z" fill="#191342" stroke="#191342"></path><path d="M204 0L157 52.9L222 43.9Z" fill="#442697" stroke="#442697"></path><path d="M846 74.9L799 108.6L837 143.4Z" fill="#2c1d6c" stroke="#2c1d6c"></path><path d="M877 132.6L846 74.9L837 143.4Z" fill="#442697" stroke="#442697"></path><path d="M665 600L697 600L689 547.1Z" fill="#2c1d6c" stroke="#2c1d6c"></path><path d="M204 0L155 49.7L157 52.9Z" fill="#3b2489" stroke="#3b2489"></path><path d="M157 52.9L91 97.7L128 123.6Z" fill="#0a001c" stroke="#0a001c"></path><path d="M79 261.1L96 287L133 238.1Z" fill="#3b2489" stroke="#3b2489"></path><path d="M94 198.3L148 161.6L103 141.4Z" fill="#4d29a6" stroke="#4d29a6"></path><path d="M94 198.3L98 204.3L148 161.6Z" fill="#2c1d6c" stroke="#2c1d6c"></path><path d="M834 20.9L801 0L780 65.7Z" fill="#140f35" stroke="#140f35"></path><path d="M834 20.9L780 65.7L835 57.7Z" fill="#2c1d6c" stroke="#2c1d6c"></path><path d="M80 352.9L105 360.9L112 356.7Z" fill="#0a001c" stroke="#0a001c"></path><path d="M112 356.7L97 391.6L156 418.6Z" fill="#3b2489" stroke="#3b2489"></path><path d="M878 187.4L877 132.6L839 165.6Z" fill="#2c1d6c" stroke="#2c1d6c"></path><path d="M815 528.3L773 463.4L733 502.3Z" fill="#191342" stroke="#191342"></path><path d="M900 295L837 309.9L900 331.9Z" fill="#33217a" stroke="#33217a"></path><path d="M103 141.4L148 161.6L128 123.6Z" fill="#251a5e" stroke="#251a5e"></path><path d="M98 204.3L79 261.1L133 238.1Z" fill="#191342" stroke="#191342"></path><path d="M837 309.9L827 365.9L900 331.9Z" fill="#140f35" stroke="#140f35"></path><path d="M878 187.4L900 197.4L877 132.6Z" fill="#140f35" stroke="#140f35"></path><path d="M900 331.9L827 365.9L888 420.7Z" fill="#33217a" stroke="#33217a"></path><path d="M105 129.6L103 141.4L128 123.6Z" fill="#442697" stroke="#442697"></path><path d="M900 285.1L900 218.3L848 253.3Z" fill="#4d29a6" stroke="#4d29a6"></path><path d="M91 97.7L105 129.6L128 123.6Z" fill="#442697" stroke="#442697"></path><path d="M248 600L280 575.1L257 543.3Z" fill="#110828" stroke="#110828"></path><path d="M280 575.1L266 600L307 578.1Z" fill="#191342" stroke="#191342"></path><path d="M900 218.3L900 197.4L878 187.4Z" fill="#4d29a6" stroke="#4d29a6"></path><path d="M888 420.7L827 365.9L848 416.6Z" fill="#110828" stroke="#110828"></path><path d="M697 600L727 600L689 547.1Z" fill="#442697" stroke="#442697"></path><path d="M52 208.4L83 209.3L45 199.4Z" fill="#140f35" stroke="#140f35"></path><path d="M94 198.3L83 209.3L98 204.3Z" fill="#2c1d6c" stroke="#2c1d6c"></path><path d="M69 336.9L80 352.9L112 356.7Z" fill="#191342" stroke="#191342"></path><path d="M58 228.1L83 209.3L52 208.4Z" fill="#3b2489" stroke="#3b2489"></path><path d="M83 209.3L79 261.1L98 204.3Z" fill="#442697" stroke="#442697"></path><path d="M900 69.7L835 57.7L846 74.9Z" fill="#4d29a6" stroke="#4d29a6"></path><path d="M900 13.9L834 20.9L835 57.7Z" fill="#1f1750" stroke="#1f1750"></path><path d="M155 49.7L91 97.7L157 52.9Z" fill="#191342" stroke="#191342"></path><path d="M204 0L168 0L155 49.7Z" fill="#33217a" stroke="#33217a"></path><path d="M834 20.9L822 0L801 0Z" fill="#1f1750" stroke="#1f1750"></path><path d="M80 352.9L97 391.6L105 360.9Z" fill="#33217a" stroke="#33217a"></path><path d="M105 360.9L97 391.6L112 356.7Z" fill="#442697" stroke="#442697"></path><path d="M218 600L248 600L257 543.3Z" fill="#191342" stroke="#191342"></path><path d="M810 552.3L815 528.3L733 502.3Z" fill="#2c1d6c" stroke="#2c1d6c"></path><path d="M218 600L257 543.3L209 524.3Z" fill="#1f1750" stroke="#1f1750"></path><path d="M900 0L826 0L834 20.9Z" fill="#4d29a6" stroke="#4d29a6"></path><path d="M834 20.9L826 0L822 0Z" fill="#110828" stroke="#110828"></path><path d="M900 452.4L878 433.6L851 446.4Z" fill="#442697" stroke="#442697"></path><path d="M851 446.4L878 433.6L848 416.6Z" fill="#2c1d6c" stroke="#2c1d6c"></path><path d="M810 552.3L821 526.1L815 528.3Z" fill="#191342" stroke="#191342"></path><path d="M815 528.3L821 526.1L802 449.6Z" fill="#0a001c" stroke="#0a001c"></path><path d="M69 336.9L112 356.7L96 287Z" fill="#442697" stroke="#442697"></path><path d="M900 417.7L888 420.7L900 429.6Z" fill="#251a5e" stroke="#251a5e"></path><path d="M878 433.6L888 420.7L848 416.6Z" fill="#2c1d6c" stroke="#2c1d6c"></path><path d="M138 498.3L163 422.7L111 465.4Z" fill="#442697" stroke="#442697"></path><path d="M111 465.4L156 418.6L97 391.6Z" fill="#4d29a6" stroke="#4d29a6"></path><path d="M111 465.4L163 422.7L156 418.6Z" fill="#2c1d6c" stroke="#2c1d6c"></path><path d="M821 526.1L838 518.1L802 449.6Z" fill="#442697" stroke="#442697"></path><path d="M810 552.3L838 518.1L821 526.1Z" fill="#110828" stroke="#110828"></path><path d="M765 600L810 552.3L733 502.3Z" fill="#2c1d6c" stroke="#2c1d6c"></path><path d="M59 329L69 336.9L96 287Z" fill="#1f1750" stroke="#1f1750"></path><path d="M80 352.9L56 352.7L97 391.6Z" fill="#110828" stroke="#110828"></path><path d="M59 329L96 287L79 261.1Z" fill="#1f1750" stroke="#1f1750"></path><path d="M100 0L91 97.7L155 49.7Z" fill="#251a5e" stroke="#251a5e"></path><path d="M105 129.6L91 97.7L103 141.4Z" fill="#110828" stroke="#110828"></path><path d="M83 209.3L58 228.1L79 261.1Z" fill="#3b2489" stroke="#3b2489"></path><path d="M103 488.4L111 465.4L17 495.3Z" fill="#191342" stroke="#191342"></path><path d="M167 588.1L218 600L178 548.1Z" fill="#110828" stroke="#110828"></path><path d="M727 600L765 600L733 502.3Z" fill="#0a001c" stroke="#0a001c"></path><path d="M900 429.6L888 420.7L878 433.6Z" fill="#33217a" stroke="#33217a"></path><path d="M888 420.7L900 417.7L900 331.9Z" fill="#442697" stroke="#442697"></path><path d="M900 197.4L900 98.6L877 132.6Z" fill="#251a5e" stroke="#251a5e"></path><path d="M877 132.6L900 98.6L846 74.9Z" fill="#140f35" stroke="#140f35"></path><path d="M83 209.3L94 198.3L45 199.4Z" fill="#0a001c" stroke="#0a001c"></path><path d="M125 534.3L178 548.1L138 498.3Z" fill="#140f35" stroke="#140f35"></path><path d="M178 548.1L218 600L209 524.3Z" fill="#2c1d6c" stroke="#2c1d6c"></path><path d="M0 275.1L59 329L79 261.1Z" fill="#2c1d6c" stroke="#2c1d6c"></path><path d="M69 336.9L56 352.7L80 352.9Z" fill="#442697" stroke="#442697"></path><path d="M900 452.4L900 429.6L878 433.6Z" fill="#4d29a6" stroke="#4d29a6"></path><path d="M45 199.4L94 198.3L103 141.4Z" fill="#140f35" stroke="#140f35"></path><path d="M58 228.1L0 275.1L79 261.1Z" fill="#140f35" stroke="#140f35"></path><path d="M0 335.9L56 352.7L59 329Z" fill="#140f35" stroke="#140f35"></path><path d="M59 329L56 352.7L69 336.9Z" fill="#1f1750" stroke="#1f1750"></path><path d="M900 98.6L900 69.7L846 74.9Z" fill="#2c1d6c" stroke="#2c1d6c"></path><path d="M765 600L791 596.1L810 552.3Z" fill="#33217a" stroke="#33217a"></path><path d="M810 552.3L841 600L838 518.1Z" fill="#191342" stroke="#191342"></path><path d="M838 518.1L900 452.4L851 446.4Z" fill="#442697" stroke="#442697"></path><path d="M900 528.3L900 452.4L838 518.1Z" fill="#140f35" stroke="#140f35"></path><path d="M13 166.6L45 199.4L103 141.4Z" fill="#33217a" stroke="#33217a"></path><path d="M52 208.4L0 251.3L58 228.1Z" fill="#1f1750" stroke="#1f1750"></path><path d="M14 398.6L111 465.4L97 391.6Z" fill="#140f35" stroke="#140f35"></path><path d="M111 465.4L103 488.4L138 498.3Z" fill="#1f1750" stroke="#1f1750"></path><path d="M103 488.4L125 534.3L138 498.3Z" fill="#251a5e" stroke="#251a5e"></path><path d="M168 0L111 0L155 49.7Z" fill="#191342" stroke="#191342"></path><path d="M91 97.7L45 87.7L103 141.4Z" fill="#2c1d6c" stroke="#2c1d6c"></path><path d="M125 534.3L167 588.1L178 548.1Z" fill="#33217a" stroke="#33217a"></path><path d="M73 600L172 600L167 588.1Z" fill="#3b2489" stroke="#3b2489"></path><path d="M167 588.1L172 600L218 600Z" fill="#140f35" stroke="#140f35"></path><path d="M111 0L100 0L155 49.7Z" fill="#110828" stroke="#110828"></path><path d="M900 69.7L900 13.9L835 57.7Z" fill="#2c1d6c" stroke="#2c1d6c"></path><path d="M42 58.9L45 87.7L91 97.7Z" fill="#0a001c" stroke="#0a001c"></path><path d="M900 13.9L900 0L834 20.9Z" fill="#140f35" stroke="#140f35"></path><path d="M765 600L838 600L791 596.1Z" fill="#191342" stroke="#191342"></path><path d="M791 596.1L838 600L810 552.3Z" fill="#191342" stroke="#191342"></path><path d="M838 600L841 600L810 552.3Z" fill="#3b2489" stroke="#3b2489"></path><path d="M900 538.1L900 528.3L838 518.1Z" fill="#3b2489" stroke="#3b2489"></path><path d="M45 87.7L13 166.6L103 141.4Z" fill="#442697" stroke="#442697"></path><path d="M45 199.4L0 251.3L52 208.4Z" fill="#251a5e" stroke="#251a5e"></path><path d="M841 600L900 538.1L838 518.1Z" fill="#1f1750" stroke="#1f1750"></path><path d="M0 175.4L0 251.3L45 199.4Z" fill="#110828" stroke="#110828"></path><path d="M56 352.7L14 398.6L97 391.6Z" fill="#110828" stroke="#110828"></path><path d="M51 32.9L42 58.9L91 97.7Z" fill="#2c1d6c" stroke="#2c1d6c"></path><path d="M0 125.6L0 175.4L13 166.6Z" fill="#110828" stroke="#110828"></path><path d="M0 251.3L0 275.1L58 228.1Z" fill="#442697" stroke="#442697"></path><path d="M103 488.4L62 563.1L125 534.3Z" fill="#3b2489" stroke="#3b2489"></path><path d="M100 0L51 32.9L91 97.7Z" fill="#251a5e" stroke="#251a5e"></path><path d="M0 275.1L0 322L59 329Z" fill="#251a5e" stroke="#251a5e"></path><path d="M0 322L0 335.9L59 329Z" fill="#2c1d6c" stroke="#2c1d6c"></path><path d="M0 335.9L14 398.6L56 352.7Z" fill="#191342" stroke="#191342"></path><path d="M125 534.3L73 600L167 588.1Z" fill="#251a5e" stroke="#251a5e"></path><path d="M13 166.6L0 175.4L45 199.4Z" fill="#2c1d6c" stroke="#2c1d6c"></path><path d="M0 125.6L13 166.6L45 87.7Z" fill="#1f1750" stroke="#1f1750"></path><path d="M0 125.6L45 87.7L0 90.7Z" fill="#2c1d6c" stroke="#2c1d6c"></path><path d="M100 0L55 0L51 32.9Z" fill="#110828" stroke="#110828"></path><path d="M0 26.9L0 90.7L42 58.9Z" fill="#3b2489" stroke="#3b2489"></path><path d="M0 90.7L45 87.7L42 58.9Z" fill="#4d29a6" stroke="#4d29a6"></path><path d="M0 335.9L0 398.6L14 398.6Z" fill="#110828" stroke="#110828"></path><path d="M14 398.6L0 422.7L111 465.4Z" fill="#2c1d6c" stroke="#2c1d6c"></path><path d="M0 398.6L0 422.7L14 398.6Z" fill="#251a5e" stroke="#251a5e"></path><path d="M0 26.9L42 58.9L51 32.9Z" fill="#140f35" stroke="#140f35"></path><path d="M17 495.3L62 563.1L103 488.4Z" fill="#191342" stroke="#191342"></path><path d="M841 600L900 600L900 538.1Z" fill="#1f1750" stroke="#1f1750"></path><path d="M7 483.4L17 495.3L111 465.4Z" fill="#3b2489" stroke="#3b2489"></path><path d="M0 422.7L7 483.4L111 465.4Z" fill="#140f35" stroke="#140f35"></path><path d="M61 600L73 600L62 563.1Z" fill="#442697" stroke="#442697"></path><path d="M62 563.1L73 600L125 534.3Z" fill="#2c1d6c" stroke="#2c1d6c"></path><path d="M61 600L62 563.1L47 584.1Z" fill="#33217a" stroke="#33217a"></path><path d="M0 422.7L0 485.3L7 483.4Z" fill="#140f35" stroke="#140f35"></path><path d="M7 483.4L0 485.4L17 495.3Z" fill="#442697" stroke="#442697"></path><path d="M0 485.3L0 485.4L7 483.4Z" fill="#3b2489" stroke="#3b2489"></path><path d="M0 0L0 26.9L51 32.9Z" fill="#0a001c" stroke="#0a001c"></path><path d="M47 584.1L62 563.1L0 545.1Z" fill="#4d29a6" stroke="#4d29a6"></path><path d="M0 545.1L62 563.1L17 495.3Z" fill="#2c1d6c" stroke="#2c1d6c"></path><path d="M55 0L0 0L51 32.9Z" fill="#0a001c" stroke="#0a001c"></path><path d="M0 485.4L0 545.1L17 495.3Z" fill="#33217a" stroke="#33217a"></path><path d="M47 584.1L0 600L61 600Z" fill="#110828" stroke="#110828"></path><path d="M0 545.1L0 600L47 584.1Z" fill="#442697" stroke="#442697"></path></g></svg>