<svg id="visual" viewBox="0 0 900 600" width="900" height="600" xmlns="http://www.w3.org/2000/svg" xmlns:xlink="http://www.w3.org/1999/xlink" version="1.1"><rect width="900" height="600" fill="#180029"></rect><g><g transform="translate(643 13)"><path d="M0 -45.8L39.6 -22.9L39.6 22.9L0 45.8L-39.6 22.9L-39.6 -22.9Z" fill="none" stroke="#7a29a6" stroke-width="2"></path></g><g transform="translate(694 102)"><path d="M0 -38L32.9 -19L32.9 19L0 38L-32.9 19L-32.9 -19Z" fill="none" stroke="#7a29a6" stroke-width="2"></path></g><g transform="translate(205 543)"><path d="M0 -34L29.4 -17L29.4 17L0 34L-29.4 17L-29.4 -17Z" fill="none" stroke="#7a29a6" stroke-width="2"></path></g><g transform="translate(179 342)"><path d="M0 -26L22.5 -13L22.5 13L0 26L-22.5 13L-22.5 -13Z" fill="none" stroke="#7a29a6" stroke-width="2"></path></g><g transform="translate(373 42)"><path d="M0 -35L30.3 -17.5L30.3 17.5L0 35L-30.3 17.5L-30.3 -17.5Z" fill="none" stroke="#7a29a6" stroke-width="2"></path></g><g transform="translate(4 356)"><path d="M0 -44L38.1 -22L38.1 22L0 44L-38.1 22L-38.1 -22Z" fill="none" stroke="#7a29a6" stroke-width="2"></path></g><g transform="translate(895 173)"><path d="M0 -32L27.7 -16L27.7 16L0 32L-27.7 16L-27.7 -16Z" fill="none" stroke="#7a29a6" stroke-width="2"></path></g><g transform="translate(513 539)"><path d="M0 -32L27.7 -16L27.7 16L0 32L-27.7 16L-27.7 -16Z" fill="none" stroke="#7a29a6" stroke-width="2"></path></g><g transform="translate(846 409)"><path d="M0 -27L23.4 -13.5L23.4 13.5L0 27L-23.4 13.5L-23.4 -13.5Z" fill="none" stroke="#7a29a6" stroke-width="2"></path></g><g transform="translate(492 197)"><path d="M0 -40L34.6 -20L34.6 20L0 40L-34.6 20L-34.6 -20Z" fill="none" stroke="#7a29a6" stroke-width="2"></path></g><g transform="translate(395 466)"><path d="M0 -38L32.9 -19L32.9 19L0 38L-32.9 19L-32.9 -19Z" fill="none" stroke="#7a29a6" stroke-width="2"></path></g><g transform="translate(592 400)"><path d="M0 -43L37.2 -21.5L37.2 21.5L0 43L-37.2 21.5L-37.2 -21.5Z" fill="none" stroke="#7a29a6" stroke-width="2"></path></g><g transform="translate(233 222)"><path d="M0 -34L29.4 -17L29.4 17L0 34L-29.4 17L-29.4 -17Z" fill="none" stroke="#7a29a6" stroke-width="2"></path></g><g transform="translate(669 555)"><path d="M0 -36L31.2 -18L31.2 18L0 36L-31.2 18L-31.2 -18Z" fill="none" stroke="#7a29a6" stroke-width="2"></path></g><g transform="translate(895 331)"><path d="M0 -33L28.6 -16.5L28.6 16.5L0 33L-28.6 16.5L-28.6 -16.5Z" fill="none" stroke="#7a29a6" stroke-width="2"></path></g><g transform="translate(776 6)"><path d="M0 -27L23.4 -13.5L23.4 13.5L0 27L-23.4 13.5L-23.4 -13.5Z" fill="none" stroke="#7a29a6" stroke-width="2"></path></g><g transform="translate(44 263)"><path d="M0 -24L20.8 -12L20.8 12L0 24L-20.8 12L-20.8 -12Z" fill="none" stroke="#7a29a6" stroke-width="2"></path></g><g transform="translate(46 161)"><path d="M0 -38L32.9 -19L32.9 19L0 38L-32.9 19L-32.9 -19Z" fill="none" stroke="#7a29a6" stroke-width="2"></path></g><g transform="translate(69 14)"><path d="M0 -37L32 -18.5L32 18.5L0 37L-32 18.5L-32 -18.5Z" fill="none" stroke="#7a29a6" stroke-width="2"></path></g><g transform="translate(250 103)"><path d="M0 -29L25.1 -14.5L25.1 14.5L0 29L-25.1 14.5L-25.1 -14.5Z" fill="none" stroke="#7a29a6" stroke-width="2"></path></g><g transform="translate(562 297)"><path d="M0 -30L26 -15L26 15L0 30L-26 15L-26 -15Z" fill="none" stroke="#7a29a6" stroke-width="2"></path></g><g transform="translate(821 539)"><path d="M0 -24L20.8 -12L20.8 12L0 24L-20.8 12L-20.8 -12Z" fill="none" stroke="#7a29a6" stroke-width="2"></path></g><g transform="translate(63 570)"><path d="M0 -41L35.5 -20.5L35.5 20.5L0 41L-35.5 20.5L-35.5 -20.5Z" fill="none" stroke="#7a29a6" stroke-width="2"></path></g><g transform="translate(412 249)"><path d="M0 -40L34.6 -20L34.6 20L0 40L-34.6 20L-34.6 -20Z" fill="none" stroke="#7a29a6" stroke-width="2"></path></g><g transform="translate(703 343)"><path d="M0 -22L19.1 -11L19.1 11L0 22L-19.1 11L-19.1 -11Z" fill="none" stroke="#7a29a6" stroke-width="2"></path></g><g transform="translate(123 216)"><path d="M0 -32L27.7 -16L27.7 16L0 32L-27.7 16L-27.7 -16Z" fill="none" stroke="#7a29a6" stroke-width="2"></path></g><g transform="translate(472 63)"><path d="M0 -26L22.5 -13L22.5 13L0 26L-22.5 13L-22.5 -13Z" fill="none" stroke="#7a29a6" stroke-width="2"></path></g><g transform="translate(850 82)"><path d="M0 -27L23.4 -13.5L23.4 13.5L0 27L-23.4 13.5L-23.4 -13.5Z" fill="none" stroke="#7a29a6" stroke-width="2"></path></g><g transform="translate(178 28)"><path d="M0 -34L29.4 -17L29.4 17L0 34L-29.4 17L-29.4 -17Z" fill="none" stroke="#7a29a6" stroke-width="2"></path></g><g transform="translate(175 454)"><path d="M0 -23L19.9 -11.5L19.9 11.5L0 23L-19.9 11.5L-19.9 -11.5Z" fill="none" stroke="#7a29a6" stroke-width="2"></path></g><g transform="translate(469 367)"><path d="M0 -27L23.4 -13.5L23.4 13.5L0 27L-23.4 13.5L-23.4 -13.5Z" fill="none" stroke="#7a29a6" stroke-width="2"></path></g><g transform="translate(89 409)"><path d="M0 -34L29.4 -17L29.4 17L0 34L-29.4 17L-29.4 -17Z" fill="none" stroke="#7a29a6" stroke-width="2"></path></g><g transform="translate(292 384)"><path d="M0 -31L26.8 -15.5L26.8 15.5L0 31L-26.8 15.5L-26.8 -15.5Z" fill="none" stroke="#7a29a6" stroke-width="2"></path></g><g transform="translate(565 139)"><path d="M0 -40L34.6 -20L34.6 20L0 40L-34.6 20L-34.6 -20Z" fill="none" stroke="#7a29a6" stroke-width="2"></path></g><g transform="translate(319 254)"><path d="M0 -39L33.8 -19.5L33.8 19.5L0 39L-33.8 19.5L-33.8 -19.5Z" fill="none" stroke="#7a29a6" stroke-width="2"></path></g><g transform="translate(738 207)"><path d="M0 -32L27.7 -16L27.7 16L0 32L-27.7 16L-27.7 -16Z" fill="none" stroke="#7a29a6" stroke-width="2"></path></g><g transform="translate(301 508)"><path d="M0 -33L28.6 -16.5L28.6 16.5L0 33L-28.6 16.5L-28.6 -16.5Z" fill="none" stroke="#7a29a6" stroke-width="2"></path></g><g transform="translate(396 587)"><path d="M0 -27L23.4 -13.5L23.4 13.5L0 27L-23.4 13.5L-23.4 -13.5Z" fill="none" stroke="#7a29a6" stroke-width="2"></path></g><g transform="translate(338 156)"><path d="M0 -39L33.8 -19.5L33.8 19.5L0 39L-33.8 19.5L-33.8 -19.5Z" fill="none" stroke="#7a29a6" stroke-width="2"></path></g><g transform="translate(748 469)"><path d="M0 -25L21.7 -12.5L21.7 12.5L0 25L-21.7 12.5L-21.7 -12.5Z" fill="none" stroke="#7a29a6" stroke-width="2"></path></g><g transform="translate(806 298)"><path d="M0 -28L24.2 -14L24.2 14L0 28L-24.2 14L-24.2 -14Z" fill="none" stroke="#7a29a6" stroke-width="2"></path></g><g transform="translate(280 1)"><path d="M0 -32L27.7 -16L27.7 16L0 32L-27.7 16L-27.7 -16Z" fill="none" stroke="#7a29a6" stroke-width="2"></path></g><g transform="translate(2 462)"><path d="M0 -33L28.6 -16.5L28.6 16.5L0 33L-28.6 16.5L-28.6 -16.5Z" fill="none" stroke="#7a29a6" stroke-width="2"></path></g><g transform="translate(638 236)"><path d="M0 -43L37.2 -21.5L37.2 21.5L0 43L-37.2 21.5L-37.2 -21.5Z" fill="none" stroke="#7a29a6" stroke-width="2"></path></g><g transform="translate(895 598)"><path d="M0 -22L19.1 -11L19.1 11L0 22L-19.1 11L-19.1 -11Z" fill="none" stroke="#7a29a6" stroke-width="2"></path></g></g></svg>